<mxfile modified="2023-09-20T10:03:07.234Z" host="app.diagrams.net" agent="Mozilla/5.0 (Windows NT 10.0; Win64; x64; rv:109.0) Gecko/20100101 Firefox/117.0" etag="6jb8gChVSCwC4kU2kX8V" version="21.7.5" type="github">
  <diagram id="f106602c-feb2-e66a-4537-3a34d633f6aa" name="Page-1">
    <mxGraphModel dx="981" dy="746" grid="1" gridSize="10" guides="1" tooltips="1" connect="1" arrows="1" fold="1" page="1" pageScale="1" pageWidth="1169" pageHeight="827" background="none" math="0" shadow="0">
      <root>
        <mxCell id="0" />
        <mxCell id="1" parent="0" />
        <mxCell id="14" value="&lt;br&gt;&lt;font color=&quot;#0000ff&quot; style=&quot;font-size: 12px;&quot;&gt;&lt;b&gt;&lt;span style=&quot;font-family: &amp;quot;Calibri&amp;quot;, sans-serif;&quot;&gt;&lt;br&gt;&lt;/span&gt;&lt;/b&gt;&lt;/font&gt;&lt;div&gt;&lt;font color=&quot;#0000ff&quot; style=&quot;font-size: 12px;&quot;&gt;&lt;b&gt;&lt;span style=&quot;font-family: &amp;quot;Calibri&amp;quot;, sans-serif;&quot;&gt;&lt;br&gt;&lt;/span&gt;&lt;/b&gt;&lt;/font&gt;&lt;/div&gt;&lt;div style=&quot;&quot;&gt;&lt;font color=&quot;#0000ff&quot; style=&quot;font-size: 12px;&quot;&gt;&lt;b&gt;&lt;span style=&quot;font-family: &amp;quot;Calibri&amp;quot;, sans-serif;&quot;&gt;&lt;br&gt;&lt;/span&gt;&lt;/b&gt;&lt;/font&gt;&lt;/div&gt;&lt;div style=&quot;font-size: 13px;&quot;&gt;&lt;font style=&quot;font-size: 13px;&quot; color=&quot;#ff0000&quot;&gt;&lt;b&gt;&lt;span style=&quot;font-family: &amp;quot;Calibri&amp;quot;, sans-serif;&quot;&gt;&lt;/span&gt;&lt;/b&gt;&lt;/font&gt;&lt;/div&gt;&lt;br&gt;" style="fillColor=#F6F6F6;strokeColor=none;shadow=0;gradientColor=none;fontSize=14;align=left;spacing=10;fontColor=#717171;9E9E9E;verticalAlign=top;spacingTop=-4;fontStyle=0;spacingLeft=40;html=1;" parent="1" vertex="1">
          <mxGeometry x="420" y="99" width="610" height="531" as="geometry" />
        </mxCell>
        <mxCell id="997" value="&lt;div&gt;EKY-C&amp;nbsp;&lt;/div&gt;&lt;div&gt;Application&lt;/div&gt;" style="rounded=1;absoluteArcSize=1;arcSize=2;html=1;strokeColor=none;gradientColor=none;shadow=0;dashed=0;fontSize=12;fontColor=#9E9E9E;align=left;verticalAlign=top;spacing=10;spacingTop=-4;fillColor=#F1F8E9;" parent="1" vertex="1">
          <mxGeometry x="270" y="140" width="90" height="230" as="geometry" />
        </mxCell>
        <mxCell id="818" value="Architecture: Backup and Archive &amp;gt; API Hosting" style="fillColor=#4DA1F5;strokeColor=none;shadow=1;gradientColor=none;fontSize=14;align=left;spacingLeft=50;fontColor=#ffffff;html=1;" parent="1" vertex="1">
          <mxGeometry x="260" y="40" width="650" height="40" as="geometry" />
        </mxCell>
        <mxCell id="985" value="" style="strokeColor=#dddddd;fillColor=#ffffff;shadow=1;strokeWidth=1;rounded=1;absoluteArcSize=1;arcSize=2;labelPosition=center;verticalLabelPosition=middle;align=center;verticalAlign=bottom;spacingLeft=0;fontColor=#999999;fontSize=12;whiteSpace=wrap;spacingBottom=2;html=1;" parent="1" vertex="1">
          <mxGeometry x="280" y="200" width="70" height="70" as="geometry" />
        </mxCell>
        <mxCell id="986" value="" style="dashed=0;connectable=0;html=1;fillColor=#757575;strokeColor=none;shape=mxgraph.gcp2.mobile_devices;part=1;" parent="985" vertex="1">
          <mxGeometry x="0.5" width="50" height="36.5" relative="1" as="geometry">
            <mxPoint x="-25" y="16.75" as="offset" />
          </mxGeometry>
        </mxCell>
        <mxCell id="998" style="edgeStyle=elbowEdgeStyle;rounded=0;elbow=vertical;html=1;labelBackgroundColor=none;startFill=1;startSize=4;endArrow=blockThin;endFill=1;endSize=4;jettySize=auto;orthogonalLoop=1;strokeColor=#4284F3;strokeWidth=2;fontSize=12;fontColor=#000000;align=left;dashed=0;entryX=0;entryY=0.469;entryDx=0;entryDy=0;entryPerimeter=0;" parent="1" source="997" target="989" edge="1">
          <mxGeometry relative="1" as="geometry">
            <mxPoint x="410" y="260" as="targetPoint" />
          </mxGeometry>
        </mxCell>
        <mxCell id="987" value="" style="strokeColor=#dddddd;fillColor=#ffffff;shadow=1;strokeWidth=1;rounded=1;absoluteArcSize=1;arcSize=2;labelPosition=center;verticalLabelPosition=middle;align=center;verticalAlign=bottom;spacingLeft=0;fontColor=#999999;fontSize=12;whiteSpace=wrap;spacingBottom=2;html=1;" parent="1" vertex="1">
          <mxGeometry x="280" y="289.5" width="70" height="70" as="geometry" />
        </mxCell>
        <mxCell id="988" value="" style="dashed=0;connectable=0;html=1;fillColor=#757575;strokeColor=none;shape=mxgraph.gcp2.laptop;part=1;" parent="987" vertex="1">
          <mxGeometry x="0.5" width="50" height="33" relative="1" as="geometry">
            <mxPoint x="-25" y="18.5" as="offset" />
          </mxGeometry>
        </mxCell>
        <mxCell id="1000" style="edgeStyle=orthogonalEdgeStyle;rounded=0;elbow=vertical;html=1;labelBackgroundColor=none;startFill=1;startSize=4;endArrow=blockThin;endFill=1;endSize=4;jettySize=auto;orthogonalLoop=1;strokeColor=#0000ff;strokeWidth=2;fontSize=12;fontColor=#000000;align=left;dashed=0;" parent="1" source="989" target="993" edge="1">
          <mxGeometry relative="1" as="geometry">
            <Array as="points">
              <mxPoint x="630" y="310" />
              <mxPoint x="630" y="310" />
            </Array>
          </mxGeometry>
        </mxCell>
        <mxCell id="1001" style="edgeStyle=orthogonalEdgeStyle;rounded=0;elbow=vertical;html=1;labelBackgroundColor=none;startFill=1;startSize=4;endArrow=blockThin;endFill=1;endSize=4;jettySize=auto;orthogonalLoop=1;strokeColor=#ff8000;strokeWidth=2;fontSize=12;fontColor=#000000;align=left;dashed=0;fillColor=#ffe6cc;" parent="1" source="989" target="995" edge="1">
          <mxGeometry relative="1" as="geometry">
            <Array as="points">
              <mxPoint x="680" y="360" />
              <mxPoint x="680" y="370" />
            </Array>
          </mxGeometry>
        </mxCell>
        <mxCell id="989" value="" style="strokeColor=#dddddd;fillColor=#ffffff;shadow=1;strokeWidth=1;rounded=1;absoluteArcSize=1;arcSize=2;fontSize=11;fontColor=#9E9E9E;align=center;html=1;" parent="1" vertex="1">
          <mxGeometry x="450" y="150" width="135" height="288" as="geometry" />
        </mxCell>
        <mxCell id="990" value="&lt;div&gt;NGINX API&amp;nbsp;&lt;/div&gt;&lt;div&gt;Gateway&lt;/div&gt;" style="dashed=0;connectable=0;html=1;fillColor=#5184F3;strokeColor=none;shape=mxgraph.gcp2.hexIcon;prIcon=cloud_load_balancing;part=1;labelPosition=right;verticalLabelPosition=middle;align=left;verticalAlign=middle;spacingLeft=5;fontColor=#999999;fontSize=12;" parent="989" vertex="1">
          <mxGeometry y="0.5" width="44" height="39" relative="1" as="geometry">
            <mxPoint x="10" y="-117" as="offset" />
          </mxGeometry>
        </mxCell>
        <mxCell id="1x39dECxccnBJiF-yoqs-1003" value="" style="shape=image;verticalLabelPosition=bottom;labelBackgroundColor=default;verticalAlign=top;aspect=fixed;imageAspect=0;image=data:image/png,iVBORw0KGgoAAAANSUhEUgAAAHkAAADfCAYAAADSv3y6AAAgAElEQVR4Xux9BZhW1dr2PTPAwAxdKiopAiKKiIoYqCDGUekOlUYkJWzFoyIoWICSYtENkpKCAkoL0t01xDAzTMB/389e62VAz/l1Duj5vs/NNdf7st8da62nc4XFnDhxjgfAv7DwcJw7exZh/H4uLAzp+P8Ifp5JTkY4v6dPnx6J/M6rEcnzSbzuLD/T8x6kS4ck/qbr0/H7mTNnEMbPDPy/7vFHZEQEElNScJb36nuKnsEfM/D5Cbwukvck81wK78ugcfHQ9XoW+Jme153VH9+ZXr+5B+s9SfwL5/lwd08Ex8u7cCYpCRl4v56ZwndkzpoV3303B4OHDkPzJi1RvtwdSIiPt3npuiR+RvBd0DO1HhznOd6nTx3n/Hi0FjrHcYbzT+tzRtfzfIaMGZHINTjHsWbQPN0aaPwJerbewb/0/O2M+79/d2gOfH8YfxMsNJZIXq+10WHPceuVxGsEHw8rraHWPB3Ho/vCBGRbeAGInxrsGT4kTIDjnyYR5l4moGsBhBRaVL1Qi53OTTRZC+xephdzaDYJLZQ/NEQDGBf+HD+FUPYendez3actprspoxZegHdA1qRTBGQHBJu03qPJCtDuvICtsQlJDDkckHNky4b58xfgk8+G4pnmzVHhrrtw/NSpYPH0HK0Fr9cCaU4RfL8QKsERQEYBRnPndRkzZLCx6E+LrOs9EDRvrZWeKaTWNVxke25GXqTxJmu8ehef5ddKz9GaG2noHgdkQy4BTsjFe3SNRzghoY7QmvNaPcfOxcTEnNOiaGgCsB6o75k4sXhHAVrsRGGrG7Q9XNSuReRL+TpiZTiphufSpUcKMTglHREimYDUwvNZ9kxRtRZK1K5Fc0DJKKx0XCGT3uUWM11kJBI4hnT6zWGwzdtxHSHLucREm7jeY4eQUosgBBLH0CT9OX7XuLMTyIu++w79Bw9Bq2bNUOGeu3H85Em7XfdFOKAZhRKIWlStkQAopBQxCOG0VjqvdbD3CXH1Lv1fD3MUL0LQ2tpv/j7HwQyp9Qy3LsYZNH7+nkmcgb+JqwhgotwotyZaAyG/EEfg1fP13dbEIZw4l54VFnPy5DlN6qwAwQUjWtkgPcvWADw2CYPjeK3YgSYZFZYeEZkycvKJOB53AscSThsu5YiMQp6o7JwpAX2O2JqciHhRh5u8JiYqE2XZu4RYGqAwWsB0QDREcsDV5MW+bbKaBO/TOOI45oxcDE1QlCHWqGcLaaL4XYikZ9s1/C6qzpk9OxZ+txD9+w5E6zYtUaHCvSEgazyaZ7zYpEN2cTlRnCjtHAGptTJE0Dwk4rSQYsv80zxFICFE1RgEHJ7TWDR+jV3fhRihOekajtGPV88LrYuj7LMiCo3BcT57txCI9+k5mpsQT2tmc/BEeezYsXNaAE1EWClMELsydq0HGti47gKCo4TIiHSIisqCbYlHMGndTCzfuwrbkk5gZ/wpyp4kFMySDTdnyYdK+e/HQ4XKIWtYBpw+E0cxQCDxGWKzkkMZiJVaeJP/GqTEAAdu7E+L6gAsChLwbBKOWkMsXkioZ4hKNCnH2mz8WgQhzEVsLUTJZNetnm6CCuXK4bgQXPPT3PUpitLcvUzkcyTWxBk0PiGYOJ0+RVUmnhx7NER1373IMcYppHXA0381V9NXhNxujSUahEDSL3Q9+YjpHZqXAJkimEjeaj0Ek1Tj0xrpOoOfm4OJWrFrTy3CVP1oi8mXaeE1VclosVQBJmP6SE42HF/8PB3vrRiKTSlH8Y88ZXFj/uuRj4BNSUrGkZOHsHDPSiw4shUV8pXAS2Wb4oErbsLppESK4kQDmJQ5U0gctZoCIkWCn6Z4cQI6pyMEZC2IJqJx8c8rOmJJkVJ0CCjJUk0skQAwWeoUHSmKQpwknpdMNnb9yUC0atUCFe69J0TJprTwnVporYXkquksYq+e/TlqMeQRInjEc0hpANa8HGD0c6IoWHNyFK17BGQBRIC/AMhCGs1V9zvkNj3IsWe90whFVKznXDQ+wU7rk07XeHYtJUBY4TU3sRbTnPUQLY7YDAciACdwCbot/hhfrJuMasUfQvvbGuDWXMWCiaY64kjRCw7+hOfnf4r9MTvx5p2t0OKmaohLOoeEM/EB29ECieKEdXy+sR8CgdAL5KmbfLi+S1lz2qQoJ5nnpAjqU4shNiiEMW4kxNB3fuqZQhJdq4US8gjICwXkgYPRujll8t1UvGJjbRz2TN3nAKZ32Tm3yOJoApgsCq2JWLHeKW4YJ8p28zLOqDkJ2HyeEEzfhbZ6lsZoM+e8It27RESmiAq5NQ+vU0je83mmX+hPsJFYclxM49AzTbwIcfRshwCmR0i7Nvmr/+hhDltNmXAYa+p7GE2odBFo/2M/fLF2Aj6s+CKeLPGYKVDxyQlYfXgddsUcNuopmrcgbsp+nS3a8TOn8fr3/fHp6nH4+L7n0fzGqjgVd4oLH7Bek18CEBfIKxL6RZxDclEUofNCQgOiYURgdknhCpeM1IR1TvPQwuo+KWMOAEIWjzxClOxZsuC7hQvQf9gwtG5KIEu7jouz8RhC2SsIECpdWhfJQlsbp8GaSHBjEfvU+pni48dnT+IcpDNIF3Gy06+p7tW8Tbv2CKU14HUSUeI+XrYL8Lrf5Li7Vmuj59p6CajiWvw05dmxb62FkExjM8VLZC2Iy0wQkMUGdEj4ezU8Kn1GDFs7EW2WvIthD76JusUetGtm7fgJby3vhzVHdyN3dG5EUMnaQ+26Vv7SeOGuVrg+y7U4zam0md8DU9cvxowneqN0nmKIl5LG54uyTG464HlZFvyX54XVwm4pHaJwYS3ZsmSmWJbGLg3cNFGnZHk5qUUXZYnaRI0hEypHDsybN5va9VC0afkM7ip/J047StbC2XMcoukZXt5qLYREZjaK9fM6M488txP1Oc7hFVZdr2cmc4yiNtnuolAzpxylm8knHUXXad6OhZvmLqAJePzuKTm0NkI295tYtnQE4wAak+YuxBSCSvHSfyToQ7YWL5IdLH6uyUSRTe8+E4OHp7THPVfdjIEPvmQP/2ztVLRb8C4qXlMSDW6ojmJ5CiF9Shh+2LMWH/w0BAnRkRhXuQdK5boOx+JPoOKkViiWrQiGV3iJWmQgizQ5yUtpw6Y48P+Sg3KoSIaZza6J809cwxwdPJ+RStsZAdtxILMAHCWHRICN0rAlsAi0mFyInHKGLFqE/kOHom3TJrj1rruRQDvZKM2wOwCWrYcWSojIP41PXEOUrfXxzghRk4CotZK56LVcG4fGJGTlec3NruGf5iC2nM6xfa21KcBCBDcn813w2ebQcaLKRKrO8dPkrXuuxix5L2IQApneI46m6Zji5RbSr4k+xTJE3WJ1OTJlxsdrx+DNpZ9gRo1BuCVvUSw5vhmPjWmNGgXK4yMCLTIiEmcTEmQ1ceyR2Hn6EOp/+xInloxp1T5G9oxZMGDzFLyxeAAmPtwLt2QtjFOUzcJ4vUs6gOxPDdIw3rFg782JJOuMJ4ewQbvxhZwsAgjv0QJK60wg8LWQomI5LUzseI2T94a06/4D0bZ1C5T3drIAKoTg9WKXRoGiIAFV5o2e4XSAEOAEQHcuwKdAm9e9ut4rj5qf+QNEpfquZ/NTzzdbVsAS4J3+oGeZc4nnBeSQQ8chshQrzV+6jRGJ2LpbP3EfW1Mhp9brNNm1IJ6OiyhlQiQvlqKJ6YVh4RHIljETak5/GQnhZzH18V620NXmvIBfDm/HiscH0gaMpo0cG1K+pHNmj86B+YdXo+aUDuh1dwc0KVkFu08exAPjmqLJjTXxQulGOJ4QF5KBRj2agLBR73UIZvLMy1aho1sM/3ukPEAcs03SyaCQnNQztIiOTUZKlhERs5lbM3CGtGjWFHfShEoSAjn5qvcbojnkEVAk37R4ptg44IiazRrh+Mx5pEXVOad0ebno7X1TDoVwQkZRHD89pXob2sareQgZ+GxxLnEKs5t1TvdrfTRWjU8I7dhzyFxzSqq5Yz0le3vSHBSaiNg3H6TJZKEH6/i5BNw/uR0eLnIv3rujBQF6Cg8Ob4wGN1VHp5sb4kT8Sb7cOTI0SLEg/j8jFbWKM55HnqzZMK7SP2Vg4u6pbVEs8hoMub+LATljOFkX36OJSMs0O5QL4JUWr4yZDe1YnZDSOxcM4wQETsgWwyGEdzOaicb7MnEeEgGn6aPOnDULFpFdfzpkMFpR8bqnfHmcIfDTZ44yb13cmUCR0aHnmJbuxuXNJgOAkE4LrGscixei2ruFFBqaACrgS1yIgHQd/4ztiuodZ/IeLo+sel/qeZpDR8/g+5IIWJlfZiraWjsLSMqmxinRIZYuriaZfPL48XO6MeQx0eS0MG4CWcPTYUfiUTw2pSPa3t4IzxR/Ajvij6Hql0+h1e0N0apkDQOWsUNHNVKKwukwycxn1Z/3DmKSYjDr8Q9tpR79piuuTArD0EfewgkqaWdpaplilWqyPhhhY3CLYoioATughpw0Gq/YoybsqNkvkC2KEINS4LsFS7gAybjzztsI5JyYP3cuBn/+OQMUTfDAvfcijsCfv2i+uWbvLH8vtdnAc2SLyMUTl5PeYNqq2KHT+M0WFtCcYhjBdRBwTBGU2cNrTR8Q9UtRk7LF6+WutKCGOIHNPji808m+a00cCzYOISrWGrg5G8fjs41dE7B6tu4xMSYkkNImEXSSJpQoR5qdKQyO5Ym1SX5kzpARO5OOosrkTuhSpj6epAl0mErUoxNaonWhamhUpgZOJ8abZ8aoRsoEn0OPMrJGZkCXZX2x9sgOAvlj05wemtYF2c9mxKjKr+Fg7Gm6HoWRzl2ZSg5qQSQHJa+00PKRS9nQZGQ6CaiSvXKICMiK+NiCOPbu/dmS0xkzpMfAIYPw7bx5aNywAapVrYbF332PjwcNwnOtWqEM2fXoCRMw6quv8EilB9HoqSfNGWE+8tRI5TT91EC2yJjkKz/Nvy426oEltukDMVp4HQ5Z7Sv/BBgPZAHRAObYvvkvhAxCXj5LSCNxYXqGHqBnOk5lMl2KohMt0mESJII0hxhq11okH/rTxRam4o8yqrNQHu87fZiU3Anty9ZD05JVsS8+Bo+NbYEWxaqj+c21TIGKOEf55yahQEYKyScrF7fDDx9iDZ0h3z7+EdllBB6d1o2LQNle8W2cJosU8ctI0ISFgZq02J2eZYqEnuUGLlvRQn9iRZ56hOEOwczXy+9CUMk28xqJWugNO3TwML788gusX7UGzVo+iUxR2TCA7Lrl001wiubTZ4MHo0SpUpTRzZAtb14k0W727FFhQj1T+oqJMo5LZpzG7LVxHxjxos9ktBDAUaOX27JvbXxaX1GmEFvzFKJq3fmbmVFCAM3RiQtj8VofiSW3zmed6eh9CHquiEzzlrJmZpooWYqXGdmeFerFQhLHQrMSyAeOHMQjM59Ds7sboH2xqtiTEIMqw55Ekzvqo02p2oiJo81Ltmv2mZNPEQSyWFbLxX2wK/4wZj3Wx9hNtfFdzUQY+/g7OJEUT3YduFCF8fbJ9wrBNBHz/jhFS9qkhf0kd/hdE/R2c4oW3FF3vKJSTuQogiRgSMtOHxWN/ft24bNBw7Bz5y4UKV4E+3bswDX5rsWazdtQskRRtG7ZElnoDTt9+rSN1ZtuRg0OgYRoQiQtovd4ZeJ7zGmhc6JEZ/p45BSiaj29w8LmZUQdKHMhm1prr+scEAUkAd04pJPzQl7z/wvp3Hu05jr8vG19xBU4LrOT5fHSgM0NKFbNG7SYkbRDM4ZnQHjGdDh8OgYPjG+NzuWewpNFHxbp4e5RDdCiVC00LlWVLi+9gX/GXzR6twr86PrdB/j5+G5Me7y3DaTerH8imZQ/5vG3Fb8ksM7gZAqBpPc7bJW9KPnnAxQyo0RVmpRRAZ8jLmMmE/9EYebi42HeKA3ByUJzbDi2my1bVuzdexADBvfHhvWbkD1zLsSeikHx0iXN85WDTpLTkm2cvz1fSMv/myIl7xrfLaXHxIIW1hGEAU2AcMpQMBBnxui741AWfzfWFQQzfIjVOBbnlixtWHMUgkmmO85hsWvnEdQ1QlxDDP3xnVqnkAmq8eqcOJnEr0BzTEkDOuGALFabRM04e4ZIrDy2GUv2/4KDCUdpJ49G+cLl8Giem3GcDraPl32GSgXvQbnsJUlxcubLc6UnChvloRHGn8PXO2djf+JJtL2ltk3q/RXjyHKT8Ty18rDEMNxbuAyuz5yPpg2pR8CTsmBDC7xvtl5u0bxJ4OO0Fn1ywJSCJYeE5KMwWsEKf6QOdGSlS/PAgUP46ouBWPzjGtx6251o3exJZGf4UWxblChHgqjRnB98iGxZcRefceLln/QB03Ap+wQoy4jRwvKckMw7lMw/7dixJTU4kWiIwsOPL7UTIxQ90zpoQYUIWgvPcZ3yJaL0AR9L3nDj1fuEJKZ4yeNlGmxoSYDMGaPw7qqxGLjuC7okKVsjsxFomqTkJSNJ6fjgFMZnee5scpwBOCY5L5WC0wRk4AM+kZwTURxIVIZ4WU4EHlNwhKlhXAx6TKTx7orZh6vpCv20wnO496qyOJlIwSHkFODE9tyYjEHIruSn7GJlZJhsdkgQclmKZWoRNVHHsjU3sXozLdwCRWfLjp27tmDdj8txQ+myKJCfrlcng8XFzMkgMSEOIKA5u1PyzmSyXJRipU4RE3WJOLzOkElyUc9xiBHgaGApiPP4AIo9V8934xMC6Hehp7lm+R49Q8hkvmspXny2FDCxfm9FGPy84iWkSEUYylwJY9rLOTk+xLKlwWaIyIAfDqxC9enPo16JR9G2dG3zZpnvlC/UUhO2lBVcbCUE8J+keOK5SC6w5FKQhpJ0LoOZIRnCpaGSypxxL0qzBT+XTNPrJJ779gMcw0lMe+x95IrIgtjEMwZkAdDklSajRRDL4n2WeOAtAI5XDgjvODCZJHYuhUvA5bWyGnSNWb3OpNDiRVPzD6e+kZRArZxeOW+feseFxugTDULxY62T1kHvdAqQBUOk8Oicxqb3umuMNfNPloD5wPV/x0JDiQVu3c1qcGP30TObsxej/ruDgzlHpJT6eWot9Aw+T8+WbzBkl5vHyy2KLsgenQ1d6XqctPdbrK47nJqfjKPLd3x/aC0aTO6GQeWeR6VidyEmnkqcU948RXpNUdQlgIpKNUGN1zsJLNQmFsnFl+y2nK5UyCEN1qhUi2YcQHanozB3nVGDW1Sl3JjCo6m795ky6ijInDXKSuGnJTk4sRGvaxwHMB1HipPYss4JSWVu6btMNI3CUbYPPog7mLdN79Z4OA5bB3EhUbQDthDIO1kMqfUOP35+N2eN43Qmk81eEw/nxTmyZEfTeW9h4+k9mF+lHzE34POX69h4bBOqTHkNvW5qjSdK3IGYBNrcCvFxLOY0kIkhx71nxe5cyDGvhfRUqkUTVTnqseQ/TVSLIJYq1id2yE/JT73Dx5pNqXLcRqzQkg2ENPwUbxK3s/QfUaWu06J6RUuLKtata/R+3uefK4XNqNRpyhIt3qlimay6l58+OCMkkJ0c8v45xDW/OcdhCQz8XcjtnSwGcP4mE8wnYvikC0Pn2NjYc5qcKQk8kSNTFrT+/j2sPbANc2t+xJtk6V2+YwMdJY9+0wmvlm+Gpwo+Qko+ZamnFqVxmO61Y6+QGasTxWjhnLJjclwL6LTekParBeRzBATL9nRIYgATMKQwOXYuRJLZJweEWLql0wrI+i4zTIpYKsSQeDMuyPsl+8w5454bYs18RygHzSGc+Z0dYemdBmT6EM5SeTGK1Xg9FbrvJoqEXOJmXkQ45A4FMVIBWUgQSmE6QbemsTVbUGrVzN1qvugdrD+2C/OqXgjkgwcOYPTXI7B63WZcnT8X/vHIoyhz62220Fu3bsHwz7/Ezr2HUPqWUqhVswbyXpEX85j6unzJMjz7TAtkosJz8bHu8DbK/27ofW9bPFbwXiTQRo2nXA6jWzRTdGZLNYrjOYUVM9C5Es1zkjVyQ5rtKR95VKbAL03t2NJ+uOCZo6MRzkmf4L2m0UoJpK0s6j0VHxeYVTyviJTs7JNUvGzhCbjoqMCHfUrv4Dm9V89LovMmVjJc59JnQFR0lGnW8TwvbhjB66IyRZmnSX+i9mgmOqaPzIh4PksKm85F8fniVlL2ZJKJlUdnymTXnabPQRRpCiavF7JLrzCbnNdatqbSnMSZhLDOfLT5OD+D3mEeQo7JOICALLtKJkI6LWxkJjwz+22sTdiFOWTXGei71nGCKavtnm2PPbu2onDxm7F3zzaciYnB4C+/MlbY5tlWXKwU5M9fAGuW/YDb766A9/t8gH50J34+ZCjmzJ6FHDlz/grIG4/uwj8YqWqYtwJuP1sCN5cqiTxX5iK7A5b8sATHjx9GBfqSM+fiubjjWLh4KQGcjAceuMeAFheXwHythdTWz+G2O8oxwpQdyfEJ9EMv5EQjUJ6x4kjGw5kcgSU8l4Wm0p28Lpzq/cmERKydPxcZ8+TCrbeWFZrjRGwcfvx+EXLxXNnSZczmPH3yFBYs+A45sudA2fK3UQ6np4PoMBYv/I7zzY/bbrkFiQTawe07sWz5EhQpXASlb7yZwYRwOlx24fufluDGG25EqRIlLI1pGwli7U/LuY4lceONN0gYYMMvW7D+l3WMiN2Gq664kkESmmUcYzgRJ5l5cefoNPKOEO+o8s4P6RsCphDSB5dMafXEG0uZfD4LUrHjrOgwvzd+OLkFCxkHjqQWrWPpou9RrVZ1fPjRx6hVq5adW7xsKe687XaMIXW37/wcps2YjjKlS+PA/gM4eGw3bi5ZFn369sfwoUMwZ+ZMZMuT51dA3nxiKyqObI8zww8icfVmvNmjF9owxrt33x7UrlsDa5asw2dffo2adapg48ZfUKdmY2zbthkTp4wgoB/BD0t/QIMGtRF3gq7SaRNQluOZPWcunn6qAdlkVkyfOQlFixbHqLFj6NFqhsL5S+CbGeNxxRX5sHHTVjz68MM0oQph0pRRyJIlB9b8tBIVKj6IeytUwPgJI4i/GTBnzgLUrFET+fNdi7ETR6Do9cUwYcIY1K/XCHcwgvXlF1/g2muuwecDh6BJq5Z4oFIljB4zkrlk2fH2273w+mvdUL1OPSL7MDqZMuCF57ui9/sfovHTjTH400Ek5LNowVyzr74eia4vvoDur7xiOkB4hNKiUnDyDE2mZHIQUqesFPOsSaSJhTuFzrJXpcTxzwcxjOWL/ZviJdkj0uaJHFEE8sL3sej4RiwikOX10nFk3wE0bFIPR0+cROUHHkTp0negGtl1usyRWEN/8NNPP4VoOhoe5qJVpJP/jttFGcAH/fpi8udfYMKUKch2xRW/CeQHx7VD1NyzyL31JDq/0BlPPFENh0kpXbq+iLVr16JPn15MgL8Xu3fvRcfOnY2LfPTxJ7itTBmsXbcO3bq9iKTTcfRkDUDhIoWx9Kef8NILryAzWduAIQMJ0LyYzahT91ffQIFrr8VHn/RFruzZsP/AfjRq8DTyX5Mf/T79EJnIMjdv3YyWzZqTo9yGd/u8TTGQHitXrsCzbVrjisIF0LtXbxQisOfPn4cuXbqg5E23oOc7b+MKIvCkyRPwYtfuuKvC3ejNe7NEZ8Xnnw/F2z17odZjT+DVt96yoEu/Tz/F4L590aBuXXR++WVTot55rze+pm+9XYsWaNm2LQ4fO4aJRJQNGzfjiSo1cHf5O8i14gLXrjgv/3y2iC8PEgu3jFqn0On/ZoWcpp0svm8hLwrmHNFZ0HZhD6w+xKBCLbJrsnB/bNmyEcOYq7xo8Y/Ytn0L7ix7C958511SyvX48ccV+GpkP/wwZxUOHY1F69aN0bFTVwzkJEcxpDfpm2+Qk27Di4+VBzahzpyX0a1EDdyX5XYUKHStyVf5ufbvO8QMyFMoVKBgUJ9BjN+5azeR8ywKFCwQ5G0xIXD37n3E+iRSU+Hg8cTunbv2IH2Gs8h3VQE7JaVmx86diMqcHlfmvSY4x3lv3bodWbNlwhV589k5ac679+6kXI5GnjxX2jmlEe/YvgOZc+bAVbkDbpRAK2Ann5czR27kyZvbzp0+HYvde/YgD0VLLnfdqVMnsGPXLhS44ipkzR1cd4p6wn6eu/bKK5HJrYnKdPbx3iJXX41IJjWs37wZTRo3xsb16zF4wADUIEIwiydUJmO52tKqZUEIkNI7NFbJcOeMsRi3/o67vGvTXKnh5WCaTtu572D5qU2YV31giF2n0GEQFpbOnp1wJhErVy1HzaeeQpv6jdD1hW6G8TriqPz0698X/fsNxuRvplBGLcVIRnjGffstPWfyXV14rDm4ETXnvI4+lTrjsby3/ur3/6snpEBOnzwdO/fvwdONGyILAR8gF5OiKa/NHyAt2wHYvF6yOGQZ8NOcP/Ka6XfTrj0W8KdcmTOj7cweWB6/mdr1gBCQV636CT3e/gBVq9SkknID9uzdi/bt2uP5rs8jX4ErMZTyqDGBfi0pbOyYERj+9VhMnjIZsxfOw4c938WnAwYhc+ZocwUWKlQA2ajV6thwdCOqznodPe9qiyr5y/9fhen/d96HjhzB1k1bULz49VZIIK1chOmjVEowlG2tczIBZRaaTS4b/ZSSBvifCLKzBAr53Lly4NkZPbDiIiDLRHr3/bew/Pst1PJo26XE4YF/VEKvl/+J9Vt34PW338DmDZvJKVWqeQ7PU7bWrFEHY0eMQOcXX0HubHlMaRAn7tn7HVSsWNEmturABtSa9QLevb8zql571/93sv9XLxj82WC88vzLePnll9D6mTaIpRkoNi35KxbtWbaZwlokr1lbgILsWr5oc3uR5ebIEIW235JdXwTkYHFTqOpvxNYdu5E3d3bcdFsZOi4CNi3bbtXKNTh86DCuv74o5XQgH4/v34+1W7cxCB+EG1IYqLjpltK4gvLoPJBfRC8CuQKJbP4AACAASURBVNq1f1Pyv0Lij/r1wzvvvIOXqX23bNHSbGyxZYs7KD2JN4pqfRaozFpLaZb2HRsXd85CdIS/VPUrc2XHs7N7YuVpymSy6wzOhLpcFLSR4cwqU1/AOxU6omqBvyn5X63zsSPHcOToUeS7Op/53OVY8dEmC+LwRnOlSibrIU4EmwftuPN4yd0nB0FUxmi0+bYnfozfhB+qDw2yFC7j8cuJw6g6oTV6VmxPdn3PZXzT/65HH6WJFeUK4C2JUEqWbGQCX3qPzyaRXA6LIZAtkZ4X+kT6t9aMQt9lgzG33jCUyH7tZV2dTzZ/g7cWvodFj3+CgnmLX9Z3/U9/+HZ6z/bRtVy4SEFkpYlnblJOytKBFNhwQQwr9RFFuyiZ1UJZvw25xci/5dbcmxKDmiM6IDJLJOrfWIVyNwsfpvCVksITmKBHvytrjpVPFUW3m+US8V94wnG68qJwIlHJM799eBYTwejW4TMH0GvlAFQpWAGf3f8Gw3CXm2/8zwWzHCFt27XFxMmT0LFdJypgL9LlezyYkIIiDsCpiw9C9eWhMhkXq02hwz8ny2KWHPgFr6/sj7Wxe9kGIprkH/TjOMNc6XRnmeXBbgJxdBJEE9hH9uyki40J7zmy0nd8BeV7KI/xV6saS3s7Pd9hDWGYZfJo/jvx1u0t+M7ADvz7+O0VUDpT37d6YcLs6Wj4dBM0f6oxTtKpokOFBSJUyyYlwVlulwunGnVTSzunSIZ8TJYBqMgOv2fNkInpOCdxNPGUuc/o68fJ5BNMy8lqRncKPU3qorNt4ya0ad8O27dtxXsffIR/PPooMtCZ7sLtvxpxyHFO53369JmQNyq3vfvfHZrgCQYJomlnR9FGTH2cOhXLTkOJyJ4jW5COk+qQQ0G/y3qIZtVEZPrzb1LYkUmM5ELpkSVzFnMynDwZi2xZGPli5OiCd5w8QXF2DtmyZ2WkKw6x9GzlovcrA/PgUh/xcfE4TrdvVr4rmhGqS30kxZ9hFCyeUbeMOMMgjHVPUhICnSNyTZsTRKaTC1OaGSXt2ncaSJ00Z1UCDKWlV/6YZXAxuqEkdoIunqxY8VHJcIX04slG3u7xNlavWoEPP+zLVNeil3puWPT992RRz6Hsrbeg13vvMpAQbe/QBHq925vOlwkY/tVnKFrsejsvL8+0adMxYtRI/LLhF2ZhAKVK34TmTZsyUnW7+Y930q3Y7JlnULJoMXzwfm98O30murz0Cqsp7sLb9EVHMjUoOM6hXbt22Ll9LwYM6I89+3ejJe3Uu++4jT7rd7ngATBPHo+hf7sttu46gL5938ctN5e65OuQ+oHMzQtqtTRCH5jw8WolGEoZk65lQKYzxPeu8Mlh8phY9MK5yULZk37aLharxZRTPwOpPp7Bfnm0gnzcS3t8M3s26tasRuxNRA86+zt17BAy+Du3exYfDRqKFUuW4kYCMoElO+/17o1ePXujKAMKd917m9U2LfluGXbtPoAevXowytUKG7ZuRZWHHkZhAnn69KmYOH4iGjxZ29yzH30wEE8+2SCESA8zuLBxwzrM+mYWilyfHy1at6GHbzAGfdqfifqt7bq33u6JV15+AS8xgvQSgw4ihEt9bNmyCZu3bUfpUjdZHFwxaxGneq/I1SlNWofYtQUxXEKFAdnKHF26jeU+80LT0JRm4g1sfve9O6xQXRkRPKTVZWb06XIe07+djQ7tW+HY8dPISqQawrri++693+TO8107YcjXo7F43ne4vlhhfP3152jS9GnUq9sYb77RHdcwvq1j45atGNjvU4YGy6B2rXoG5BqPPcZszdIYQ6/cpMnfoEWTNtQVTiHv1VdiOMOHpUvfapRSt0F9bF7/M74eOx4lilyHA4cPo0mjetj8y2ZMmjGbQfx4VKpcmXHvezBixFfIeJFIuRRro4T/Du1bYwzLebp0exkvde0WUrx8mWrqIj1TwGRLW4DC2cmKVaoPlU8oC1XlyaOitBcBnKP1nQcsVUyyjuzq55/XYc7cOahWvxqK5CtyKeZ0wTOmTZ6GTmzF9OgTT2D56jV8bzLjv9ORPWd2PNflOQwd8hVWLF+GfPmuQqUHH8JxtrWYMWMmrmZE518dv2zZgvpVq6IoS2NGC8jjJ6N5y1YMpzbAdD67+HUlMHzUUHKqLIxr18P2n9fii4kTUeK6oE3GInKOenVqomyZ2xAbe4qOisMYyecUK1biks9fD5RLuA+TMBYxyaEOo1N1q1dnWw4WGrq3qYJEVSjyYVtrK7mQ+ZsBOaR4kSqUnyTFS14TpdhY+EqULdLnDT5FNoyKVUok01jSRyOGnpgWLZrhG4YSR40Zg5rVa17ySc6bPRc169UmS3wL1xcphiq1qqDZU62YedIT3WhKDBa7XvojstPvfkuZW3HPXXfg82Ff2DiW/vADVqxaZYuRlaWpeaMy477HH8d2Bljq8tMDedrEKWjQqD6+Gv0VEuNT0ICFcT169ED79h1Qi5T884qVmDB1KooXOY/EAwYOQ8cOzZjfFYUB/YbwuiCZ4nIdUhaT2V1JcWKFNc1GlkNEirPiD4SVXJvWYMcnE8gZouR6yyZwctbyjV08UjatRTKIFb4U0+S22DWvj6RyFst46SeffILNm7dY8L5UKaWzXNpjKllpyxZPozMjXh07dUK3zp1YpTgQEydMxpLFi9GHbHjZd4uRlZR9S9myqHjvnRg8eJjlRr/1xpv4sP8HyEyzMOb4EcaOc+GnZT8y9ScBTzDBofhNN2HcyJGYNHosTZOG+JzpTI89VpWZGi0xbeZkTJk0hTH0L7Fi8UIMI6v0lCxN9rXu/0S/j94lW4zGa290RfsO7UkYf46tz5iDEaG1pCTwLe1XhxIFvFbtFDOLQolSZQzIlAoZ0/y/9ZeSnSX+rrikFDGdFxtwmYuZKH+kfCneHJEqweBSgnkqU4eerlcf7Z/vhpe7dsUhBj2q1qGSxCSCa5iRsWzNOsycNgP5C+VHlSqPYRsL2KbMnoOiBfNj3/6D2LVnK7JlzkYHQnf88ssqZnV8h1NMyKtKIN9MIH9FIE+c9A0aNayLAQM/YVpPQ+wjpVd6qCLyMU1IfOx0nPLZRhLIASWPGj6C0aAWaNSkBWKOxmDqlPEYNWosHnyw0qWc+gXPWr16BX5ev4ENX+/EVVddZcmBOoxIZSsLuISZL0VWpo/gGoonW9GbAOnsLas+UFa+q/s1RUwODFUJyk/Kh0qjk7crmpmMl/MQkJs3aIC23brhRabc6Ji3YBGaPtUEhw4cRqEiV2PMuEkoXqwIxpEiG7Ow/NHHq6Lnm2/SBZjfro9l5kXNWrUJ5HXWZUD109UJ5BsI5BGUpRMnfoP69WuTAwzkZ6BZT5w4Hu3aP0vz6CRuvOVmDB7yhbHrX9b9gocrPoZCRfOShc/EadrijzzyuIVRx4wZheuc3L6Ua5LCZIw2bZ/BV+RezzEFqjs1eHm8fB22sW5xY/kw+N33OJM+Zb5rKd76QWmiSmNVxoGVaui8BLewgX9mkylHWSaWsIf/lIK6lAl906bMQGP23yjhQoyXcoLjKQvrVquGN157Dc9zcv54h6bSqy91Zgz8asyknVvqppLUPZJNlr7fpw+KXpsPpcuVZxg0CT+tWIGjR/ejRdP2pOhutGd3oeJ99+Gm0rdQ0ZqMcSPGomb9WmyPPBhNn25qr5AIe4G5Yj17voXiRctg8owxzNjMjtqPPYyfacpMJEKVv7eCXTthwnjmi9VBlWq18dFHHyJXriDV51IdZ+hOfumNNzB93BQ8R7HwFJWvE1S85OGy9tQuQ8RKfh3sxMDtvHzX8u/IXLKiLGEBKdiKwwRQ5/hQLpE1FpMg53kFqpWLfIQJd08+1Qjfzl6EcV8PRfX6DS/VvELPWczU3NdeYm1WsyZoWr9x6HwMHRAvvtINm5l1Oejj/ijELEp/zPl2DoaPHI5NGzZYPvQ1VNhqPfQgqtSoYQi6k+y4U4d2KFqgMJPo3sX8hfPxSreu6MTAfLUqT4Sec3T/YTTv1BY5zqSgJ3WPhQvmoud776ExW0O1oTYeOrg+H/bpjc+/Ho7XX3+ZyYjVL/k6HD95mqLhCK6+Mq8Rosxb38JDFGtFcVKWpS+5Sgwzo+TxMveXo1iBWZUIvjWgFC0rVXFVC/KTqshLabxy6yWw5PTrr4Zj++7daN2hKa6/5tKbENIeE07G4Gy2zGxUc6G7UAVrsXTE5MihnO5fO2KOH2c5akQyvWQXJvafPXuOLs9jdK2qGSwdC6xITow5jkzsJ+JLST2UEtnZKD7uDBW7XDhBG1ny77dyyHX9AUaJMtJblp3ZoJfzkMfLxCZfYm2inKj1vVuMXMW+FZOIJSUrpdP34PBFU6F+VY78L0gr0Y2Sz3KI006W4vW//fDz16Jeep/e71u9xdTwf1q1Gg/e9wCKFCxohGbcl4ToO9mrBtw3VjfLyCfymaCWbSyWzU9fX2tat6icv/vkMCUXqBTUyiNVkiKPF5P//j4u7woksSNDw7pN6fEag+cpot7u/gZNQoYaHXv2pb5BmnIAR7HvoIEqFS/9xxp0u3Cj5Q45Ck49dAHb+j2mSgPNwBKUHczBXrN2Ne665z5c82+8TJd3Gf53P/0cvXzv9OiJqd9MR7u2z9JSYEMebakgld7FGQQ/Ayr/vJNEq2KKl68i9FX6qnT3QYtQC2FiiDXYls9aQWo+SC7NE8diULtxI8xnEGHc2FGoXqP2/+7V/ktnd44J9seRjQqvCvQsCV4EKf1IupLTn3zLSauVNiDT45Va6dJNwgir45X/0z1IrDs1kC0oLc8YKxAnTZ2M3bsOonGjuijAaoe/j8u/AlZN4bxb1jNEepY0aVG22DX/fJP6sDhSsrU6EBAdG/adB2Q+SbnS4W1pdQVSIMNMLv4p4qJSzL/6WMeaKBWMyfMWf5JYnkllpBnw0AMVcT9zvGU7TmY91soVa9CyZVNc6VKC/+px/973S8GaNXMaFi1bhiqPPs5iwpKIlaOKDwg1XXeeLyVLmK0srVuUrDIZfQlpjfwhqPtVYXTQb8P6UMj5rbQSp677TvIyqbJd5lDj71mIKdOmoVmDesjCIEWunLmZuQjs27XXGrZ07/UumjzZGC93fxmfD/0Cs6bPQIkbLr2P/feMM63XnDp1Ek2aPI2xDHd26toZvd/pheOqvRbsRIgygcV15duQ8iW3s+qYlX/HumMSZLDHklRydcsVhco2tRvNs+Wy8sUSHJu2BipcyPQs7Vy1cjkjPcvxKDGscGFXdJbW2aTxvomMgjVr2BBtOndEx2faMXMlEdtZpKYsDvW9mjVrFkYMH4b+/Qdh7tx53FEmG9Zv2sSy1QLI60pqY5jXvGX7dhSh69IX5x07th/r12+jTyAja4mLW030X3FI8froo/6Y881U1G/2FGqwOkWuWuu6QLEqcWqUK5+GOiDIWSJOqxAye1exvtk1FpcAFxYIO3iDcht8eaQ1AHUPsQ0vdA8r/OOYF9W8SXOMm8LelKOGo3bten/FGkBAbkkgv0LX37Ms/fTHm2++gQ8+6IOpU2dg+fLvuVADsPj7pfh59So8zRLVDz54D1WeqGKXjxo+Ci+8+grrjYexm315arKT0Pf9/ti//xjdu8m4rmg+PN/teZQr99fkh0uPSmJeWgSbzqnnmLWXcJ4uv6mIaduO+5pipgDTBaFGac2arUvWvriZtu8m53tSmzbOv9Wrl2PV6vV4/PF/WKeBv+KYNGMa+2Q+xeyOlkwkaMu5pWDbjj1o0+YZ9rJOwmSGKydP4T4YdH8uWvQDAxUrSQ21mLc1GNXoF9fxBeuDlVo0Y8YsFKSzoRKLya+6oiDe6P4KMyFPYcbsb7hfRWU8RPfoX30o1CgvpN9yQXJZnFi9S2zzFR6+wbsBOdSX0rFo4/NizQKiYpLCBpK9fNzWK0oYIlzgeSlilzsK9XsWdOqsmejYphnFTDRrg3NTyzzNYvVDFnT5Z/d30LBhHbzbuwcTDIYRyEsZ/15FrlOXSXefoiozRHSMGzeSSQIdMYkJBFezc8CjyjylUvkqc7dK33wjcua8gtsi/Lr89veM7z+9RuJx3OjRmLt4EfPdaqH87bezOzGNXVJtqDsv4aJWzD5IEeqFJmeI9a5ysletCCx3V+4x13zU93024Dvntw81yn+d+TKkn/7RRZkyfTraULm6kY1qSjBvS1p21sjMqHT//biH/UWkPL79dg/LwVI8ed26VajLtJ5PPx3CYMJj9rpJkybg2WfbMo1nDHuNlMPsBfPQl0GHTeznwRbduPnGUuhB9l/sL1DaEthOona1RpgydQw6PtcBfd7tE2xz5PQo23yFcxBg/cYx1iBG1pAl8vFH22lUESZ9F7k7c8o3N0+dbWB2GIGdnpmNyecSLRa7hyUc9RrWY1OUv07xkkx+uXt3Vhq0+00c6d79LYwfP4LseDa2bFmPmjXroO8nQ1GrehB1Gsn2DW2ffRYTGM67++473TNS2C7jFyz98Se8/34P1geXxBdffOkyU/8oKqb9+kTS5+dfDMXiOQtRo04tVH7wEUsaUIzBbwomAFscQk4RKV58nTVjFbu2LV2VxilMkGtMvF3ObX5a8zHKaiWS2eYZDgF0LpqsK+bwPtSp1xgLuKfDCGZY1GXGxl9xKP+qWf36eJEx5+eee+43h9Cr19tMVRpMdv09dhAp69arzi715dGFxfS72bqi/6BPsPyH1Zi3cJa1g+jT+13mepex5IJDTJxXDljmzNkxasRIVor8Nf76oFwpHCeogFmYUUEKzlYy2XapcfLYd7e3JjHWW1NUK9VNZpHCUyJ53mRb9wjIyjYQ5eqcEEDxZslkskTlec2ePx8zZ85A+zbPsjNOkOD+Zx8TaSc/3agRXmPec4cOHX7z9b1f+SeGjRuFGUzxzcrQ4+tvvk45N4JmUSYmw5dlsCWDdbQfQ9ksM+qlV1/DzEULkItPO8P1zMVwppIJ77jtjj97ehe+j7BQcML2jhSBytUsihVAeaW1a6TuJE9YkK35G7vJeNeYbQ8n6uZDLEVXiKCb9Ep+2oYg5PnyePnNNf6q2e9hH+vNG9Ywr+t6Jgj8toa/YedmnDh0zHpqSVlUec2GDWu5YKdwQ4mSHHoy20dtZxF9CSpZOazx28bN67F75yFDhJI3FGOzmF+3qfpT5kwYjBk7DlIwm9WujfIPPmh2skWhBAsSpLVu5GB8cr2l9omArdOAG6VRsbBDDg/+mcfLl0PKPypKF2VLC1eer2qk/g41/ikwTmRud536ddm/bBpNxC54j10HbM9nwsQXQoT6dhHo6ugnb6UatBslW5BZgJXAlrAWBUsVd0DXLFLvuC3g2zYEytOm/3TEcKbZbNqA5s1b46abbvxTJv1/7SXaJWoETaiVPyxD1WpVcDtNqARla4o1O3dzyDspYhRMeQhWlpLrWwaLJfv9B23/BF7g+zNaM20X1rLNQPg9E5MFjjE99kkWksltOH74SFSrV+f/2vr/JfNVRaZZPLKNBUx+ql48E8WnbfTpCNQiUwpQyOa1Skbn+AiVXsikktKlILR+E+nLpalpqXaK9ykld+WPP+LbOXNQ9+mnmRj313i8/pKV/pNfqnJh2cPyTZwkq7YkDrJl47IiQP1fYtgp0EqpNrieJiXbNn4EmNUnC/LqsCpftcshsh4U7gF+S3dDCNlof0Le9Z+8lv+VrxOhDWah3/QJU9GcSf2PVK7EZq+ng5RcT7kuoOR34/Es23prhvZPFuCcKi7Bbc2zJaOlvUlOS+GSQiblzBIGiFWudXAS93HUhgTn41X/lWv1P3ZQKkBvSGfP6PFj0Y7+9Q/7vB9UNYpqZfISDj6L1prAiyhdoCKIQsnRISrmSUvz5P8FYPmtLYne2V+21wL/tEWN7SGs3iGMaX7KhqCraYq81LYzbil3+//YhfyvHjh7Q8/+diZWrlmJh9igtihbLSeqnYRj19Kd/D7MXtxa9YTI7oRkMr+Y80NeLwFSPxDYqq0R+7YGYHJlEuChzZh5jRpxKwbbjEnm01nZP5pVCNVrB2G7v4/LuwLHVCLDV/gKCr/ptgFV1E0A27YMHsjnlOYjh4fcZM67ZZ4SxwpMNXcquU8Dsu3hiBTqzL5i5XrbqrZhw1pMq7nq8s7u//DTz9BcPcm6q+yMJycwkc9MXK6HEaVj1wK2EgnkfrbtifSnHC9RqWBu2hiBLUVMpG8eLwGeh4xq23CD/7fuIXyBbdGurQD+zru+7Kgn72Jf9sgePWEs2j7TFnWqVWf6D6NQEqlyesiUImys24+IMpWPI0gaMJp2P8i4lo2sG2UbO3ksrVqRKtuTQZ8OyJlY8KZu7PHxsXQV/t2m6XJBO45lOk8++SRzvEahU5eObK7eJ/Bf0y6WQiwk8Du+Wh8R/lmypUBrlCyfJzHAekE5chdAdbNsYS/I/cZVmoh4vrIQTsQcxXssGFu9ei1eeaU77mX3nL+PS78CKWwxtXTpYma0bMDtd92FwoUKI5Es23Zh9TLYK8jiwvwzE1hAVs8QG5LI2zm6/e6gutBSSAjsKLJyfeo3nVdVXTay6W07tqNWPTZJYXH0F2ymUqPGpa/mu/RL9j//iaJi20lOXFfcVe22KLNDu9jLgSXxKyCfZKhRVGw9r50gN5eY83BZbz3+31Jx5QETC3DhR8kBddebTJfmvn17uQlIjb8Vrz8Jf1TVKHvYxCbfKfEaKspzctpCjQKyAhQ+E9MiFgSmbfEuvzUfYP2ShSk8r6wD5fiqb5RKM8wZwu9/K16XH7LyZYwZMxo/zV2CB6s+hvuY0iTOagqWI0gfU87gOtvbvsoCtM/WNMVLGOB6hNi2cwK4MEHatWS084D5reqkXfuy1VOnjiN37rzWTvm//TjEjUDHbZmHvScO4sosV6H+dfciJ2uU/5sPpfo0aFCXHQ0mM7meWw717GmhRtvWz+lOVqoqwpM30mncBmRvQonULX6sSIZrwum3Wjeh7Uwp28NYgl4KGqmYe1ig82uvYvmPyzDonT64q/ID/7VrdZqZLPO3zcHLK7/Czwc30dkfRx0jHcpcXRadSldHjSIVqMj89SU/v7WAoko1htnB3dtvKFmKPcuuDnZVdRFBXxZjjWnFvvXnYaZsTVO6HB/3m45Ypp8St2V78QZrAOa2jxOtSvHKyuyK3bv3oA67021ctx5ffTmcuddB5uN/2/H9vjXo+dPnmLV9EW1J1kqx95YhLrv/Uu7QR5AODYo/hlbcuqjs1Tdygf6qUvPft3IiLlOUPUDFaaUz8dMA76jbWLh81/J22VZ+LpQoNmyeFOfg1msvKJVx4xB70EaSS35ciT1sJ1H5Hw8hj7V1+O851p3ai89XjcZnG77BkRP7GG1hi0i3NWEwSuczYhiPmzEiT7bcaFDkYbS6uS6K5Qj2j/pvO9QKI461Ubbju4BKIlWZk7xcmo1liviKVAFZ2/hJQwttMZtK8bIbBWgl0avmxrEC28WUf7aV63+pxysmOR6frRuPQesnYcP+n7kSbHnB1sviWr99OGBzIxScOY1SeUvgqZtroOH1j7CL3683Ev3zAX8Wn302mHtGzkcdbgn4wAOVbVPSUJPbVB4uv42fBZSkY6k+2fK15DGRrHW47cle6rnf+9f4vWxnd535SenxEtM4dPiA7X+owrC/8kg5m4zRmxah79rhWLJvmVkBiPRKVQDgcDZgF6cOYyPslJRgH+WICCY+ERFSkimMwijVzihJLh0qFCyHbmUaolKB26l8XvrOt793rdS/swF7mU2ePAUd2JHwfbaA1q5w6p7o23qIokXNlsXDT8lmRRcDxUtA458Z1JywylRtryEZ2gIsqVh2mN+lxIceM6vgLfkcBrPP9ddjR9Dz1QP331/59477kl+3Yu96fLx+NIE8m1jOWGsGViAyzTYoFODoKWfVCSglRamqwmmXecqZCfApKazolJM38PMS8ckMk+LY4D0ajxepjPa3N8JtudVA1ac+XvIp/MsHym05j90cJrBSpH7tOihX9lbu/sOdWQUf58jyKdVWuqonad7Srk3xcidCGrR+F8UqQ4QPN+xwfN40NoUeiQxZmIq7b99+PNW8CTasXccWxV+wM92fXwy249RhDFs/AR+tHomY2GNkywSsbXUUACPsbAKHzPLOc9w/mbMNZ4KDBM7Zs9wgW0A/S2znpWcJ/PAIddRR9Cb4nYoJ/xiaYcO3bBnyov2tVdGkZFUUoOn1Vx7HmeNl2ZkCsPN6CaDWM4T/V6xfHe2tPpnNRc6Jaq0Jtpwfzk42pUvGtOxnzcbJMtnI5jBxsWe1/P+ZO7tpA+3y5cuxf9WfJ79iuLHJiE3f4fN1o7Fs74pAY9Yusc50MM2BABPgDNjGnkXFomwhOimbFCx3j/2WzM2oiQweyPr/eaJV3ahyWVNQNk8xPF26LuqWeBg5w/888aRG1WFxsQjnzrhmI4sYBVhq0rblkwhREUTCTbayIlLSpcJOkZKThAk8aaWqArKCD7pBLNonDSjsKPmm1XFanBWvE1Oy/AWhxik7KHdXfYVZ25ZxTMoDZ9mKNgwlQMNS4o31KvEhPFxAC8whoWsKqfMCIPN6Ad4fRvHJTKUxuS305hok8hkCpqMck9fkcpUL3Y1nbm7APSYvf0XFOZp6fQf1x8zRs/BUq0Ys0quCRDaq89UtAR0G8YfQdxdRDCXX6yczot1ELCvfUbBsZbEGmzIfJGEvpUsIEcXt55POxLET7U5utFmEfToub43Q+iNb0WP115i6cSaOn2E8VTI3gjgtrmMUSTGTjtvUE5gpZ9krlMAKpqEy3POsOIWATJc+iQAlppOyIyIYL+d3sXKTy47yxcEiwhPJBjOGzht5s8qQmzYjW0b22ixRBe1veQIlc176boQe+dROonnTZuwpPo6hxk7m8Yrh5itizRKlih4qH0ApuGLZIlL5MkyRfA9oBwAAIABJREFUPqFaKClbpMg4/cibzJetyYk5iU3L1uJ3AdfXJ/uySIXAPnirB76cPB79PngXD1X+R4gqLuWXvaePki1PQd81w7E/Zi9ZM82hdNboVyAk9TLfKULUpvQlRc8oa01TJpcKl3w979wQhZ6XuyoUkzMoQICz1LbTpSdQk5iW6Fi3OIFX2DzCBFRNxBKwuZnp1TmuRItiVdH0plq4OvOl9xWIay7jhivT5nyL6lWq4sbixXFKmbWiXgHTe7dc8MivvYldtV00Fu0o1VmLFqZSwp6c4JbqY5QSFKaLXSuOmYE5Xge4AWe7Fk2w9pdfuOv4MKsHvpTHae5BNWbLN+i/fBx+3M+tCfR+ac0BrYUoNejZ6+Vu+lRatFiYwC4tNAB0QK3B/QGF05JwLDvCse9fsXRRORFHhxDB9iFyYzBgy77mnll3FCiD9jc35IZmdzM8e+GWQpdyXdRpwGqfRJDOrBXsVFcui8hy9vgpGBq7th06dULOD50UMCV/ecif7VN91BbftotTn2t+mixnxGP/tu3slnsEN1Gtz3wJN9mYvG0RBm6Yiulb5+Gs5CBZoyg1cMUYxv1KqbJuNQTAeWCdB3KgYBGgZNXnqfRiIMvECti2AfQ3lDOxeSGFZ+sBrE2To7/3hO1e+3jRB9H+pvqomP+WSwbbpNMJ3BmH+0Jx7yo5QnyGjm0fwXf70lV9ighFvNbLSx35rC2QMJw/+u641kpXLNuxAslgXSP5LODaGjs5cKl3k9l+Yid6/TgOIzdPwfH4oxwYKcKoIrW3KqBiDzQpXAKId3QEmrJCcYF5ZJZQCBa6LpC9Oqd5hTnq/jW7DgSCuEBgVgXvkMwXIulIrbgZEtLbJn943qicqH7zw2h/QyMUz/6vNz35PVhwlhztXbZ1mjB2Flq1exINGz+JU5LJBgjOQtmZmqi4MkWvtUlWPEKiVpTsbeAAd3U+kMG2pMJOsm5RunqEWGtd/q6H6HdtTyAN+wR3NoumEhYZmXav0OnEBPRfPQ4f/jwSe49u53spYyV3vT3oWKRfZBurJDABFNi0nCvlaEpKsFGZP4JrzstlyVfJ3NQUaUCX3JbTRLOXKsJ7vOwO1iUwsySzxQ30Xh0BuzdUcdTtnCWJ1BNooxfNez3aUgtvfmM1eqDStj6n6d2qz/2sJo8ci+7Pd8ar/3zT+niZx0v2sJI+XBBJu7HKfAq1eDK3phaRf7avkLRq8XQO2edaSwZfvNGIfNqZ2Cw8OT4ZH3/aFzNnTcNLL/4TlSunTSYnUKa9sKwfPlg8gIB1SlVo047z9q5XmgIKVSM5yeJgcQNHh3NykIq95izFKrjGc9VUlEzkkKxNDUAhQEj+hhwmMr0cB9O7RNEy1xzgBfAIIZsbR2C2mYeFCEOqYiusjg+2xbu3NecYxWj/2CGRuZzd9xewMczj3LSs4LXXWmMYT4w+imjcSnDk9calTCarTEZ4Lz7u5LEyQwxDFG4k5QrI1kdEjhA9QCycv2eiZ+nwkaPo2qkDWzz9iP5ssnL//WmLJy/etw6PTn6GjUHpscpIXzOJJJxmDVLOcOHISUgAgQwMdAavRKVWqgKuJaoK9mQUxZ53XQaA/k2nhzxdqWWwaeaS29K4UwMjoIdAUw+09tQOlOBKW+aAs6QWL8kJyMHEhLm1P0XpbP95NwaranR6gESr1Y4754elUYtQHZXTgcIyGfmpnU1lbMkPz2lpmpn2VlbdstiAJQw4N2cEPV4n2SlXG1EWLnqddR5Iy/H1hploOPsF3kpokqWFhTE5XItMCheQ5egIjP2AbXqTyAP510qVYW4IsBdq13KABCzdK2he4w7MpcBB4s856+RCdu38315Ge84SAJdjTGFCgjgdnTIGbPrBo7l+Ax99G/ULV0zLEnGTsROsfzrB5Pqc1J2ccJVDSpo0P4Ve+m5pPxy0lc3IhDrpWjypBFUGtYxpy/iTau7SgTQi23uC5wKvb7Axs5Sx9JTXlyLHa+yuuaj1zatmc6ZLH2i4xppNPgasNlg96QvBJPQpli3WmaqWwF0oeRooS561hrRhU8SokcoZkhQ4QzxVehv5PLumDI6gNm2esuBZgQ4QmGPykHlN27xlSYGTJTwskb085EBxFE1kpeccAyu/jvrF/7gvQYDr1u0FTJkymjvcdOQ+WW0sJdf2nHDKseV6CT7ySAq4soy0ZKypCfw7XmPWTfZfyUGyJIUheUjRsowD3igBf5abZ0l2R1LxOqN9IIhl+bhXUTp5oNJwjNw6G/WmPS9cpFs1yHDwtqiZMaTqFLZdRrKUGcrsSIkPJvMb5ZHaCQQNWdSvhQ40a8+e/f+lc1AhiadNK/Gj0hLW+gbUeKGnK/U5L4tDLDqVTe29ZLreX+eR8xy7uOq5CnxwARHNdRtU6RXUK/bIH16hWPbsepaNd0aNG4tOz3XCW693tw5AOsy7pdi+7Gb+37ewtnRqAdzLZGVj2o9kt8IE81Mr88NRbshVRmBb5aNYOQEcQ1b9ArW95cvXon/fj3FPhbT1nRy1jTurTmZrJvmIiSjp6HOWEmPyLUWmwWnkypoPN2TPR8RKj42HdmH3sT0ElBzzUQQUFUdjs7JxA++Vd2UGAkg6kMybMyiZ+3pcy266aw5y+3huAs5lCuS/XSPtWRTubemLTCgCzDR4p817ag6ArSU+H/zQb+HiNDaHZLLrjBhU8SUC+eE/DGTdsG7tWixduQr3lLsD+blDQJwA6IgxtBu6nFriuuLKAdYHdrIuDHXJFU93mpniy3J8GFE5YNunyUbuVWFAPm77D8+auwC9evVEpYpp067H7JiL2tNfceza+ZHlkpSWzBKR0rlvQe+KnVAyb1FmKCZjw+G9mMikvA9XDCfLSqAWyc5zLgnAByUuALJEDW3XBqVr4cWbGiE/05RWH9qON74fgll7vzNxdJZyOvBnBwEKUa63hwNFjwuXzBUg54D84hFS19U5XjazD4To/6miWU77F5CjCOTB/wGQU2OG8q6NyzpgSmwq+mQ7/xAu2pjNN98Lo/11zjcxt0zMVP01rYeI07Qlf5UlYkVxxCDdI2Bre5xw5kwdOXYAedjgLDKNmSGjtn2LutO5sZdYnBq9iootqE+/erqzmPDIJ6icv+yvKKDv2knosOBNUxzD0kdxLJSfLvgg29VHoKT45Mt+FZbVGYarI8/7ln88+jPuGtOKgGXbwjABN5C3lmRgCC2WK8CJC9AujVKr6CjapjHkZNo/i5zPTDdxj9QOk4D9h5RExd8zhWFIlZdR64q0JTseZRurg9yH68oCV9PaoMNDmbUqOJdMlmhVpFB6knNqSfEyXqieIbbziLOPTR4L2AKi1Er5Qp3f2koypIzx/9YxVyYWX3IpQo1jd85HrSmdbceTMHq3At8xtf7EMOTOmg0r6n2GayPz/Sabe25xX/T58TPxxqCHhltcb1IJYc4yYnXH1XdhfrW+NA/POySOJB7H7aOfxPbDu5COAPTeK9nAKU6JSmZjzQgGYiqVuhWdbm6CqOQrMHjtl/h8/USlRnKcgUYuFu8VtsBU0/+dLX3mHKLJOgc//DLqFvnjMjmZSYYdO3fFyC8no+uLz6Bz5y7cQvi4hYiFZUpzCleCAFcohcC3TWMULZQtbX28eEL7Qinn2vuqhR1WvioeLxksP6jkNs9LoAsRdE7elUN0lsccO4Ki1xU1yk7LMXLrLNSb/hJvFcsMXJTGLplelCs6OxbVHIDiWQv+5qPjuEl144XsrrdmAtO0Av+27jcPluSiXJ5J8bgzXznMrPIBssiT5o4D8cdQbnxT7DyyM3DC6Hrntgy5Prm7eokri2JK9Y9RJOOVds1B3ldleics3fMjESubQ6zz1K9rzitspAfOI5qBlUEVuqBe8T8uk2nqolW3Tpg2ZgJ3d+2IV55/nspurCUNmPkrruq0ayVcylOg4ggrZVVjGAstiloVWZJD2wnuMwS6AKpDvytbXzf5hp2yiY+x00Crju24K/jPVLwGoEKF+9ICY4wikOtOI5DJMgWkwKwRJbPdYeasWFj9Uypdhf/ls/elHECNiS9jye6V5g4VZQWOkMAMO8vYb7mrymNW1fcJ5POIuJ++8TvHEchHBWRFt2Q7e2eIXINEloR43F/odszlvQgLku/V0LT10ncw9LuR9O1mc5zHDBhj23q3H4OuP5vE3XdILIMqSrv+40DWM7bv2IQt6zfihlKlbc9IU/PEVfkp17Lcm6ZiigidWSUitMwQXWQ9k2UiJZ1DYmIsN5TOQgeIyxkiYK03hZzeDujmXWGoMZZY/s/XX8OYkeMwaHB/JtcHDcL/6DF2J+3kaVS8iPGy4cwUUvoNsy9zs2np0rqDUTjTtf/2sSsObUKDma9gw6F1CI/OYkGJQCbyOZxTuWvvwKwqH/6KksuPb4Lth3YiguzazB0eltjnEwvYlKX8Nbdh1uN92DSWeds84mgStZzdHV+tGcu+Gnm4uGzF4Vi2zDfvFPHPAbsJR9MPP6jii6jHNN//9PD7J9tYBVcnj/V/20KC/8/IrRROxTM/22Sy2LUuJiAPcS/C/gMH4fqCRdhFtpZ5VsLpoBAiqFGndXiTJ0UOcD4sir2ulYaybv1mtgkukuYcr0DxIiVT8fJ2spwOSrHNlTE3fqA7sGjmgv/ftZm4ayGaTn8VxxKP8DnKN6PY0XMSklFOgKpyISUfICXfQUredXQ3ozf01smyICX6gIU5PhhoqFDwDkx/pJ8lV+hQnLv5vH9ixMqxSJclK1mmlCzvej0/THESKW7awTxzhnQYWjXtitfu3Tuwa9c+FCl2PTNw5GgJ3uPz8cS6bXc+lRoryZKN9IYMHeL6eMk7wotVCplEkv9kyOfsAbIAtWtUQz3m+ibS8WEbaPMBvkTSZ+lfqm38Uite6TKq9XLgfxYl56RMXlBtIG7MUSC0enH0aW+N3YdS2Qr9CvADN03CMzN70FnDedHtagsRdwrl8pcju/74AkreQ9l6r1HyDpoOmUM2suxmC0RKgSK7vjv/7Zj56EeIigxYfRzlSMsFPfEVo2aIJJs3xAgQKvB6JZrtLsCbTc1sz2imKQ2qTDu56B9n14mJSdZw/evPx+Kl7t3MN5HAPl4StbJ8JEp9H1QpwvuphQ/+ZAA3SfklcIYIJcx45uCjVMTGOOWwzwbh+1XrUYs7i9d64nF6ulgL6wMVmqV4vvzZxOy93IHlALeSL3PTLYgmm0/LMXr7HNSRnWyRPhdholwmjJGbQF5S43MUyXZF6NFHCLQm899FneJ3oEHhi9yELCPp/NMH6P39ULr2MjEFjIZY7EmUu/puzKp2IZB3kJIrOEqmTcSgP5uSKtokZcCiIgqSJKBM4fL47okhXJ9AaYslJTea9SImLvscyMxx6XrFkuXGVFCHCOMtBMskYSQqmp30TfFKg0xWK61XXn0VUyZMQIs2bdCF7Z5jGH605j1aMinIhKFi+weZwDHok37YtH4TajZqLNhyRUQw/EvW13MJ9GhFIY6pn0OHfoVv59FJUbcmnnj0H5ayqxCjDj1ULGH37l3o0ORZrNj8C4YNG0BnSNryrgMg006Wd0uKn0wo2afxCcidJSeW1P4MRbLmDwE5lumxD4xvh72nN2NG9YEolV1J7+ePWJzCU9New7iNCxDGnibnGMgvR+36t9h1ufHNsPPAZktMqHbj3bgmU2FEyPTgdkjhBHIiw4U35LgOTW7gnhTObXuW2ZNjKGKW7Fxu6UjhdHZEsC4sfYYkLD24k9WTrN7IQM2WTprArUmZTKQZVOnlNLk1NbP9THveTYIqzF7cKhmWh1IiVs30ZBlpW8VDdJIMGTAQu7ZuR02K2wfYkD1swKefWmhHNrEpX0wkTxfBPYWZdXmYZtHqVWstz6tyhbsJ7LqctHhfAGzbP5lOhA/f6Y2v2Dy1/6fv4eGHHk8LIWP09tmoM6lTkAXChDxFoYKgAYvQMufC3CqDyK7Pa9cCcu1pL2P6ulG4gwVqox55CwWyXtiLek/sYVJbdy74PNlRZNd3/qbidee4p7HjwAY8W7Yp3qrwDLKEkQpTzSIIHv7+4zBt75Yze2PijhlmR4fTfk9JlAmVgR6vF1G36H+ueGkbP9s3RMkCHJoaxBykpTOYAN5E/SjXlflw660lLc4Q1rx1a9toxO+obUKESkp4ZDpkysK4CftGHdqzH9ffUhLtOz7HHC85DPi7vCoKORJ7xDK2H9yKa6+4FtEZ09YByAIUpGQzO5zHXA7+c6SkK7PlxfyqH6FYloKhlY4ncjWe9TrGrh/PcxFoULIK+ld+BVlV2JbqWHtsO6p90wlbdy/DnUUfxcyLZPJ+yuRbR9XH0VMxmF1zCO696tK0cv5uzypUGtccienkMdNuaynMfwuj4vVKmj1eG9luevOWTbjxpjK4KmdOE5/WbYDzzZY1K9b9/DPe7/cho1PnkIWbm6WjX18lrGG7tmwJgrTOhNL62JYEpNJ1y5dgBFsKRXGRWzRrhhuYBhpL2WCGt9xpZBeXTvFyJhQ9SxJtZo7QhAGdGHmyE8jV+uOGVEqWKLnm1BcxcxupJZKIRY9Qu7ta4MPbWv+K7GbsX4paY9uhSO7i5lTJnNoZknCMHq/G2HdsNyZW64fHCtz9+0n231z5+aY51PJfoC6judA0FSVL8apEEyoNMjmBFkyL1m24080wvPjiK3idWydYb03BSoozEUnW7YplizCce1aGMRWrad2GKF6wEKsu4uLIqV0XGReqkpmwYtUq9PvkU0b0ItC+axvuLcE83+Nsvyu3pji2fMVynhDYG1evocdoP+67615kT2N9sgUopnY1E8qS5WUu01Y+y24AebNebUAuke08JZ8iUKtPfgHf7phFs4C+aMq8SKYLfXRfR7S4sdavlv/d5V9j5PZvaet+gFyhKkduT0/Fq9z4Fth58BdULHo/upZ+EjfnKc4eKeFgOkVoI9KMBFTu9JS9xhyD49TZeMQw/Hn+DFlzhkSs2rcNnb79EBtiNwcAvgSKl9pJvPnWW5g2aRKatW6NZ1q0sC2D5Na0nl2Eh8UVmFq0+IcF+PKrL1CwQCHuUdmQUSjZyQa1YCMRacsLf/iB29NwWxw6FDq0fxbXXXc9N2Q+Yd6VUAYgv0eTRWxme4NnmzfH+g3rMXTQEDzCDbPScoxiRKmu4skK5lOBTVEw34IFKciVKQcW1fgUxVNRchzZdaMZr2P8lvGMTuYIlBs6PLJnyoKRj/fCQ1f7LX+C0SRS+x2/6zs8ck05ZCOw/CGPV7lxTbCLvmswuJKHVF4g85V0CTILhsqVRd1o/pRhau0n93Zg8/CgQiSJ4+q5YgDGrZtKM02lsZabQsSn6KImfyx2P72kZNOMbJmLVkkD1HUGVXw1TW5NvfMo5fDhffvYSiKfKVxK7FDtuNJurTKV1wg+2UjFM2fPwmdffoYrr6CjxrbW5UWJ1M4yU3jTOYK3+vTB6RNx6Ni+DUreWNKC0z6lRJ35RMsKRmuzDjlPOnfpjNUrV6J/n49w/yNpK10dvW0W6nzzIkfJ4ITlE6YKUGTOhmXVBqNQjvMerzh62hrOfgMTtkxCGIEs+W0Hm74UpCY85rFeKMuw5MXHxUqUfNflJzSzAIVlhiqdVonyqQ8GN25h3dN35Cbe4xVLztFo1quY+NPX9HjlCCVdWN63nqMgi4BARLVghVe8HqTilYYAxcXzkMfLYggkNttkRMkc0rIJl4z0DWTMGI253OVn4MCB9Hip04AoVBEmYgf7emHlTz/h+vz5cZ326HUy2Ihd3i45vH0ekRQvxi61q0nMyRhjD+nlNUrDEQo1yt8cSARTFc6yBbACFItJycUuouQG01/DxC0TzlOyr2pgbfL9Bcph6D96oGBU3n87Gile5cY0xi4FKJRA6NOMUt8VdxR3FSqPb+kty5g+UCzNrTnnn3SG0K0ZxU2FvPvJfpWXKwhZhhIE/0PFS8OKOXSEId0Y5L4it+lN+rM+XkImrRf/lIsnH4a6JYanC8dPS5cEzhCBxaoh+CmtWeUvco2Zw1srrQcQwMrmlLIlYCupT9SvYHX0JahqHLNjDk0i5ngRcSIYP/aJcQo15iIlLyAll0xNyaS2hnRfTtg80ShZGRhBmNClN5w+hCpl6mD0fa8Ry/91rrMo+U56vHYcJpBp7ypvLHUqkCUFnEnAPfnvwZRHeyMbbW4dcmu2mNsdw+nWRHTuAMhW0WGbLLkEhlRZoARyNHWGQZVfSxO7jqXXrftzXTCRG4825w52Xej9Yh1bkG/nqFhZtpEKNjkvmHSmKHLbC3Z4E4B9Y2wPXI/QukFL5QPUilalKCjNzx+5B8XOHVvw2COPIU/e816pP0LQY3bMo+LVxeLJJpQDCWO5Ubkz52CAYhgDFEGYzyjpInZtyX22uAK2tjNSFUMcupRrhTfLPfMvAW3sWm5NB2QBK8gK8ZYxgcyk/3sJ5Kn/6I0sznedSDnddv47GLh2DJEjiwE1dd51kHCfqtxGUSgG+gc9kLb0HxFcj149MG78ODzTqg1aN2mG4wS8JQu48K9gY3ARkB11mzfTdniTpqxpKUYsHzUzGATSDIwIpW5qrtxrC0ZLGydFy4W2Y/tOPNmwMdZv/hlfDvsCj7u9iP8IgHWtsetpTMlVdgUVFKtykP86KRZ5suTGsgbUFjOeLzVJYCpP/RmvUSZT8cpEm5EVjCb/xCqp/MhvfJabe4Wlj8CH9z+Ptjf8ds/PIyxkLzP2KexmgCJALnklgxSg0MEw5b2Fbsbcf/Qn1QRKm7a/bPgto2+r6LuOyuEyR8+nCv8qMTCJlCyPl0KNaYgnG/dgdubRo8e401x2s5E9KlpfNf5uzhEBldzVdsjVrqzSuEM7vPECaWkS3OkilBzO2/hne1K4LBDzikkO80YFqiOoqJ1kHvBr3B9x6bJl+PDD3uySe/8fha9dHyhejEJZdUEQuQlyttTGIQdmP/ERbrvi/Bb1sTSh7hrbjMl4ih/nsLRZZYD40GIgIimAiCSZWeY6pPLbqH3dfb8a2yaW49w5qTWOnTwYuCfpabMkQJeyK7l6lgC6Mjon+tHvXP26IGf6u/3rUG9mF+yNYdsoBTbSXVjuqvsMWawEVilJBDLTk4ZUfh51CqXNAkk9eAs18oTthC7KlWXkgG3ESFhZ2bGI1zdrsww/BR0UdpRKrmJmL4+FIXJ8kFWpAE55XzqCHK+MBvhTp2jP5s0j2zxNh/muvwlMKDn4VV8cRKKEbGdRr8Qj6Ht/F+Rkx7w4UlY/ZoG8uKwvsVlKo1JRfZmMUmCDRDoL+CsB7ww17qzX4M272+D+wncjX4agG9DeUwfR4bv3MXYzbW15yqQYCyCWOH8+iU89RRRFuob2euOilZkCG4UvNs3CllMbObwgQcHf43O6Uifo613m8aLyM7Tqq6h1ZdpyvPYf3M9YwW4Uyl/Q4gY+oT60z6YAargdOEisc73cmuoZoiYv8n2K73vgSbVV/laEywDUwuu7bauum4U1stEuUR+v0dvnEsjdAkpSWq7lMLhKB4WiGMV5qMhduI4Rn32nj2PKziVEAooWVlacB6grk0nV+8NCf6piYOlrerajKndVKZTIUoiaaQRWH9mMxftXmTYa7hQq2dsqSE9dAmNAlmmkuib60u1QoMJxnV8B1NJ2hSwXyWRGxAY98Hya2LWcIV07tMWIidPRhS2eurHbwHFGC23HXAUqOCSZUKGeL5yT0rUsJVcVFFbgpsxM/uBzqj3JW8YBz6uPpvykfhNOUa8ad2ahXN62bRsbbi9FxYoVcTXzgdNyBJkhrxJ5pJ0G7CB1OUzQvoELLFYhG4vUFJ5OLD2oN/atIQTU1IVpRkVWrRg4JOQwCbEbIohVTiq06SRcoAsEbSiC5wQUbeU4UqZcrPh8XxE+1lU6nk/llVgTuw64iY2BGTfRkVEYdF/XNLk1Zcn0ea8npn8zCw2aNEGzxg1xkuat4CY72XQqAlSwUsxfqVnKy6aZFORdWxK2lC9p147UxbZ1sT1A53mNMWl9t4Xjg2hqneY+CC2btsOkyeO4Z9FXqFb11y7F3wP0kVvnMEDRjWuqWqhggc5XQsgeVO9mlakEPOmCaoWgBsQAIgQ5n04bJAPaDfReWcmKkEQIQ44RRhatAIhSjYJSl8A2949SqNMjyb+rsDj/7kAnSF0C68dpOV7kHoMqpd3jdYbKZjxdmZFMllQbat+/y7bSVYamEUAQVzYlzHFc68hnO7gpacBl+2m2In3bzc3HjzkTYY3ozHKzeUgeK2OwJ5uUrF27Bm+91R1ly17oTvw9ANY1o7bPQ90pHfmNVJRB7sAgh9mo2VhoYL96yvA1xr5jwIWKTpDo7qsqbKEZ+D9LjwBTUwMN3MpMHZWpDMclx1/8nPPvC1JufU2zxnxBHphrKuOrJs/XVAWF6gElp2MtVDfUL5S2cGzqtVRyvZxSpniJGB0XVhatsniUBBLaP1n9rpXKY7u5OfeYvCZ+Nzdp3DqkvUnvFcu2XVdldIvvS26bEz6JhW9p7xk9ZccCVGOoMYUsOSKSSEeTyHuLgorEIJXGU6bVR0nhcb08ggzJX8vki6lMgDcbViaSbFuVvEjBU3ZlKvYaXBPIe69UnT8XyNsL+4r8RhsKlzFqQGabqCyUDGNrv4/KOdIW6dq6bQs2bdmK0qVuYmVjtlCBgylegpPYs8hEeV7SmZzCHLBrx9ONTepH5zHRqlphOg+rjeLhd0n3QL5UDVT3nz6GqpOexbI9P5kHKZSt6Sjmgi55NpDA+RCUmAbVC5prQO3+3EWIwWsvrHM6Lzt9Ynyo55dSj1zLiH+lOf9WP7BQrrZVXmjNxFH4efok7mQK0eQn3kfuDH885q70nw4d22Di5G/QsVNXvNiVyfWuqbn0J3NMORgp0CSvlwoglE8f1CfLdOJJ39Tc6pyUYy2AC8hizzKxhBmqJC9iAAAgAElEQVRi6eqlTK1a2rV2eVvLYPXChQtQpUZNFGIFfFqPBYfWosOiHli1nd31mBsdRg+R5Iyo+kI7VMNRBuT5Bi8X26WSv6LadEqsdzL7grZOF1cxurKcwBGi96r7QCqlKtTySUq2R5agDZTeI+S4WI+Q++7sGZWEJNPGvxl9KnTF3WlMSkgkJ3iBVRNjuC9Uh44d0fHZZ3GCgLdKU1k9hJf1JrdBU/kSz5OLWCaUQo0GQCd7BX3T1JzjQ9q2LlbrIDVWlQdM6ohkgSogJRtaMLY5ZepkjBo9EjVr/Gf7J+9np4HeP43CyF1TsfcIHQ3StBgaPB+0CPp4+MO3aEpdOurPhboMuD4gQSZl0LXPWOhFPbuCc4H8v7ic1QSFiQzvVw+Ust96vwUK6FJVjPvazPnQ9M4aaF+8PrKnS7s407sOHTzGPK+9KFK4oIlLc3aICwt+AZs1kStgW/amYCUTyjbJluLFE954Nsp20YzUeqvxflGywxap6bF0tfXr3x9bmJrSrVtnlCpVJq2EfMF9Px3fjgFrxmDkL5MQS6+VXI6mBQtIYtNc8PT8fxL/b20f5MbkucCJEvTxsmpD30ZRFB0qaw2KtWWTK/FeVBto70GcQdRvNq6atYlK+Yt6cNpzXeK8EULqBHyrhKRaKg8ZkwmuYq74Y0XuR7vS9XBjtguTDC/FAh3Vxl8qeCA3DbWPUJYo/2/AJ5x8uMaatQn6/6+9tw7fuj7/v09AUBADUSzsGdgzZ8zZ7QzEQJ2YqNg6Z83ubufsxg7UWdNtBnbNblQURUVAGvR+Pp7Xeb73wa/u/t7H78/7dx0HfK7rHa88u14uak5ctUbg4qjaSISuqutFRGCF+7hiOnZRNdZREjZxXoSkdlB04//m8/3338kOKwMMcm4X8S6lgxI8Ma3TJu16FyQqsVpK252fPxtXvHJ9DB76oTZFAoXMl9OgC0+iKhDGG9Qgpa7qnrIE0uSDLVcbqZwq1t0myszIQFgzj7S3SQd+Yx3zNZFna8u61kk1sgQ8rRxnSluMt/r1H/0b1kXDlFVixjwrO3k7nWWsFpaec+748+K7qubm6nIeKIJEVyEmP8imLrgCuuJH+U/aT6eCteN14KnWcEYFYPy/fV57/dV4XcdArLTcCjG3Ev59CKc+ZQSplCZbJLVHZX3/+aLmoDhor010UXOmoU32wSNJzmHsbPL/10Oyn5J/875B9yjFV7xEeuPEDhOjizZhLPYNCuVoISA+BhfR6O7TdYlhI7+IYeMnxncCpJmFoWOk37Yb/72ERNwEMsOKf4/G8iVzZweR91aJYL2vTRafackSpS7LHk9W4wS9M1GJctPKkmZvLKtvBBCgyzL2/QSlzIrk/kjsFPuikKHv9Xs6ebfaCwDbTzOjwn/G6xl5gjCqqIhrO1GFsZ3axyKzLBBzTdfdSXGTZPfuqE3FFTBFcsS0ogx6wzVfp9Mkx6mfGZWes/lWW8Wyy4gKNor61FuO4LX33rvFnXerqLkEr5N0uAsHgJUgbOoLJmuiNobo+1jSm1hGFzWHTKVeBR3HAdEUNQfmeVGQAVm30MVA4NVqmGB8nBMPPfRQ7LBLv+i10C+TpvHjxsY5J54cL7/7idJNKLwtsihM6ShJWbYCSYgqBiqFXz04FMeHgCiwDxcdAt6ECSppodXyQWXTEnivLe4srB2vbSBGWuR1khZt2i5iPxMowdQKOmg/LT5hvaNFZa9/UCqqVj6mjFV7rg+jZ9Ue3smO0mV5l6PlOwrTpghj20kQ66DnJ0B9pm/JLJPH6X8F7bcn8JCKQwIusWAXg5kwZkqMU9HViUovor9Oagvp98cULKYVcPwAVVJyH5s0btxobXCvOHD/A2PGXyglPVkOjhOOOT7uvOeO2O+AA2IPBVYS4FEfvIN4Bm0ESW2J/fIml4PCliAMInrIFi1MnZKgXdRcL1cdL64jjDnkhPOTJXhxUOSjjz4atyr2uve2v2zx+mbk13H2mefG0E+GRecZ5djQprdTjHVH9QHhlfNLrFfFuIWRkyZ3FVbiKoQXitfKQDJZ2ItertWJyZ2l2yukpoN26UeZKrtMJ7OrbNRTZM3qpCyHH5V7RBrsFAFFp05Y7lq1rglTnajKPO313jTyVf8orJwyQaWfp4d2iA2N0ZhAbHmV2kngw8LUUZuBLaBDp1Ybpm2yC0wEOMdIw1BiWSeNh9SasaNAAgX3aTxTxjMhsR5h+w+SKSZqDOR5UVes5eFTmwLUkePGxCKLLBgHKitiZoXS/tJn1Mgx8Y1i4eeee84YJ1nIm4jhCoqaglYd4+cs1dSI2sliZX8yzNt1vIj3IsSHDWc6CQ2OzoQcQBYYBZtNZV05NW644YYY8tH7sfdue8UiS/7HHfjTwX49+ps495zz47P3Po4uXTl4m6hMhJUfYuVVV45uShz7btTwmG+xX8Vdtzxgnvn7rdaN5wa/ooS6D2KtDVaNhVVuuZMsV51mEiZ8Lye5yPnwr76IO2+93baAjX+/setOPvzggyQSxqKL94p1110t7nrggRjywdcijSLfMrZMliw3z/yzxvKrLRdPPP5srL3BBjFqxBdx7x33yVzbXb7Y0bHKCivG/IvPF3ffcq+GKVee3p00Hmug3JqyyPXoqaR4OSyGfq4g/l22FTJMiIFX3ROd5XJuL5v4xNHK955Bi60N/kG81xUUqEQhrGxHXRTx6k66OHz0pFh00e5xwAGHaZP/e7hSrSmuxvIzVH0XV/+BRKcziYgR5KuWdJ3GD8yWkKKqZI9SXYIXCc4UBANqIAn2V5HlKHJNekZjI/5FOFT+kKIYTz35nPj0kw8V6akaV9Jzf5RkMkFQuZtqOfecc64Y/OSTsUWfPnHGOWdoHO3itONPjJtuuUElgB+PU0Wuxkloe+bFZ2OpRZeOX6+0ogrSPB8vvfaSHCSvCavGxK579ovFFukVJ55yZnynMOF+u28Vyy+zdhx94onxzWdDFXMtzNXyjhV2Lb/88rHrrrvEJZddHLPNNpcOnh4VL7zyVnTUvEaNUZnDnbaLVdf6bZx87Kkx6utRsg1Q3Fzx5ipk2knlJbfffuuYsceMccGlV8Sqv16FGjXxggIaqaupqCW1A5IIW8X/qVwEWQdYSMEGkzt2lq1BlGz0iJGxeK95Y//9D4oZVaPrlz5PP/OUqvK9EuusuVYsNN983kCQjUBMQzgkKDEYX4MTINhkIkNawdkY7qVKpIRthwWKdjku0MGSN7vh5ONgM1Gb/5vPSAX7nXHaefHZ0E+k/igRrZOq7UloITtv+136xCKzLxG33HJ9/GGP3eLeQX9TQZgxcYDKGT3w4EPxj4cfjMOOODwGPfBIXD/w2th8w01jx75947wLzo8333kvuikUd5zswyuuvrQApm+cf+ZVilZ5L0468eh45+0P4qEHHlQKz5rRfcHuygj5Rpg/yIabXXf5Q1ysrIMFF9RRtSLxr//7/diqzwbOC+vSYYboNls3pf9cHkvrVLUlll9MMsg08dgjT8U3342IA/fZJ7rNOmtcde21Enbaq8zE5LhHJ8L/ZpWV43frrBQTR46Le+55KD4e8llstun60VWpR51m6CTW0CUeuufR+ParzyVTyP6v53618EJxwH4D3N7PfeQSjv577Rm333m3SzyddsKJCp5Uch5sDpOz/jXylPbMRdrMd7B44U+GNBddh/+WLRsBB5NZ6lxsMsYS/MpstEs1iqe9/8E7irt+O9b47dqKCf5PHNZPBwsmn6bDnYd+/p74ofKdFNk5SbU5JxDeuuM2scgCC8f5F14ae+2zm8OKhg0bHhuuv058NuSjePbF16Kvziq8/C+XxZPPPa8NWy+223a7uEy/3371VQVaziB1RMXFZ585Dj78T3H/3+6Pl1/6d5xw5NHK07ohhiuBb42VVrZEusa6v41H7n883laN7t123zmuvPKvsckmW8W3I4bh51IayvJiEYNjZZHrCSL95156aWywxhoxWcJXjx5zRs/554orL70ytt92G5HXWeK6q6+M9TbeUEVfv44Xnnw+9uq/e7z+zpsxe8/ZpYpNidMU4txvj51iuSWWiycf+0esutKq8dS/n4vbrr9FFEFSuwIuei01exy43x9jRoU6/dyHKrmnnHJy/O2e+2PXvXaPnXfaRRpA63gCzJkO3QIJk5U6MgTyDctVjUYdb9ByM/p+mx5Qm4ASHNEus6jn2gpe1PEarVypAbvtEbffe5d480CdXfTLFq9RwuTTT78gPhFkd+4sWqDYZJUekhD9Q/TeZutYVGk4J591VvTeYuOYv+c8sqaNEin7JqZVTFMH6aTz95wjzj73/Bj61XexrhLw+vTZTFh2cbzzzvCYWWszfgTVa9spw6C/SOeUeOPdt2LD9TaI0089xWrRBmuuHSOpy73SsvHFl1/FU08+JeD6g7I3r1Th1y2kKk2IWRW4/ujjj8c9t94Wu++xS6yw+JJx8rnnxQpLLRU9F1pQJ6spcnPNNYT9Z8RKK60S3WaZIy664JI46KD9XAFpGil/3Xr0iNNPOz0WWmD+OOSPh8Wll4ucr7yCNnD6OPOMs+OwQw+JMaokdKXywDsrt3mS2lxUmYr7HLhvzNz9l8n1+PFjYtzwr6OzktlcekuaDvXHy05NkEBLe2jVWkNgdr1rKvLBb316G+Yw/iZfdsknAIDN52GUTRpKXmCxXUvz3JP/FC96NnpvtY2qDfyy4MUmn3aaNumTDyTc6Jj2cZJ6pWqMU4L1TjvuLGvZ/HHC8afGIouvEgfsu1t8OvSzuFnpHuusuW4svdxy8dprrwuTLxEv+jFWW31VYdKW8RcFj7/+2nsKXuhq3/AYSeybbbh+rPa7VZWVOVbF5MfEFSK3u+++m4S06eJRVZndZrOt4kO5Rv81+Onou3u/uOLKy2LzTbawXj7XHHPEvXfeGXdLJeyrBPxVV1xJ7GKQgHD7ePKJp6OLgGcNVee/8OJzY5VV15Q3qFtccMHFsd9+ihP79ktJ711dLOec886N+eafN4467Ii47ubboteSizq3+eKLL1blngNVxnhc3HrNtZLJpOOPHieBdbE4cMA+/+tKDRRQRXrupD3xJou6IkOxPzaGwKeRmWy7lqvRZRRzk+v0NhQQHkBhwL1Izg2xXyjY2EUrMgRrDbG9/5vPaJHrs845Oz566z0VoZ9J/tWI+RdYJMaoGvv2WsTR4s2nnnamYpgUj3XKiTF0yKdx/Ekn6nT1rWMj5dneecfdcfvAWyXVd4zfrLFKbN9367jwkovi9Zc/ipm6TS8IlqFEEZoLzTtHHHzwwTFjt9nir9dcFc88/ax0zKNj8OBn4tbb74w/H3lYfCOMeFwZBnsI6y+//NLYfLPeMUrqUjcJPpMmjIyBd9wZfbfdWZao6SXUPR3rrL1OHHfSyTH/ggtE/937x+knXRTrrbZMLLBkrzhHGsOuIsdfDvsyvvjiq9hEpPuqa6/SOOaPddZbL045+az4/ebrqsbKDHH+JRfHn+RgGCfJ+xqxifZSv74bLRVq4Xni0AMP/sVcMsjyYxI+Acy111wzVllxBWs25WKcynlUpufSkNCTK9LDKhICljYSHdnhubn5TvlIcmAPB8+lP7lVQDVNSv9ltxG8zjr7/Bjy/scyoUbMohhtJNi5Zp/dUuAt1w+MF156LWadY5Y45Kj9YvjHX8WZ550X66+3fvx+s9/HNTddHy8++6qwqX0ss/oSseXGW8cN194Y77z7jk2rHaaT1PzteMWdTYkDtMnzzbdgnHbmGfHWW+/GFptuGmuvtYaqIgyJHvP2iNff+iCeF2/fZust48Ybb4611t4kRo38LN5+5305XHaTWjYSY2WMHvtd3HjrXbHDNn1iJpH8r78bHnPOu0BcfOFFMef8PWOHPn3jqX/8K2afe4748qsRcde9t0b/P/SLBZUgSATKYw8+FrfrZLaD9t9L/H1CXHXFtbGPsH6cJPnrbh4o7FZgojC51zLzx3577xszKYP05z7fy1W5/da7x30P3hFH/PGgOOWMs5zSRKYE7NRFzbUnIGQX2RL4ixDtAvXwZHyO1LbmIatHWnB4MDSda+hdVK3HNmpzJrqYGnLstRZ36Befx7WXXxaLL7O8vFBbtcJQfuZjTD777Pj4XWGyyk5MGiPrWndJsN1mijEK7R0hXttBNTkk08dss88iqhEx8kvx21mQSmeIEYo5nvK97NRsqPTLHt27xncq+0hBdCxjGCPwAU+S/jLLbDPKQKLzMT7/2sD4oxa853zzKCVXgDDue8fjjR0zIWabRflc33yv/N7Opk7DJDzNO6dym9rLECJhbbou08S3w8coY7B9zN1zTpW0GqWpt5c+P86FY2fvoWQ7V4uQCbRdZ53FMTq6SpDsrnMr9UR8PUyhszKdzjbHbLKfTIhvR2rNZuoimaS9017EVHXMgOp99prnv6pQP8qecIE0iYcf/nvstPNO0XvLrcWaWsH19iDmmlfIDzvQlEK24MXGpSGEDYT/2tibpk5wtOp4NSUaIefSkXFQnHPCyfGn4/4c2+3YO6696iYtyM87KkaO/FYqzdkx7IuPZfESD9UmTlEKyhgZFijb30lJ2q0IXPS+UVoUWboU7zxZAsdEbRL1t36YjvyiCdpIWZQ0yY7TS0rXWKi+04kDQMRg2smxMEbtTiPLUiclnxGs/6N2daKcEdir27uOiKySWptJ8tN26orhQpYuGS06KKVm/PjRkhVkE9dvgIOTdSYqi+IHOTJUapXoXI1LwCjHxcRxsnRJMiHi9QfpzlT4wRLXXrIGKT7owu206RMJNpSdHk/MBFnBWmc2dxZP/kHC4DgZQ2aXavQnYfLPS9ctoXmyynxIR5e1ZczI75p0JfpGpXUUDzxZWAxyYvdw9KaS1X4ksgB+S4kIFyzHdo0Li5ZTf7Z/WT/RixHZfVIJSVW6/7AOiXz6hRej9+abxYorraR+fh6TCdi/7Zbbpd7cq7Y4CGNa5/tOI/sy4t4kTb6dUlJ9uqmAZ7IwCYz9Uf86UN1AasQUrPoCgsmSyCdR+kIeKT7TSE+doEWeljM0hdGMoJMcAxOJ9VKlIKiV/GxMSHMUKOgr6a/TyDLRCduzNsYXU7jE8ui8BPWL16idxj7JYbvyaGm87QgqyDAiz9dGCYL4CA2SAKux8PcHggGhNK3FC8FhqyKvIIWqQLjLO3TpKJ7dOzbeaAOtaVY9+i9sj8wIDEieN7aMFLz4zseuRnwLxHrhbBqpoAH6B7WrOq5LLWYnZcI0+W6japWbyx4qYTS+5erkv4zP1Vs/+OB9GdepeYFFqOXxaqcktym+oEmD4YoG+VE1reGL2Jcpdv4jWRW4c/D6SCf+oSNuo1ZvXksBSYfxmrRMTWxS+4naUBwrbCpVJnCp4bUgaEBrNIWjHTEUVVAnDdnj771sfVgAhFYcKPyYKIAjqkR2bNFjASPQoDlM0PhlI7fVied9erUEVM63GKtrVIGaoPEhARFHznMc5yxnRmfp+L9aeHEJtD+fETpSx+ree8PN8arsEfvvvU/MMfc8gpuJLYE4I3Qqb7zqkuNrBhhMvl3UHHMlgQPoxejCMGxINYw8JTTMZBVIgEsLncxeWTpSgzNK+JoknvOp6ovMoCToHj1+mez8NyD4v/f+5wq8/+FHMvxsI/vCh3HL7ffGqquvEuN1rB/wbscR5BnBCzN0hmo5hDptH05dxf+I8kyxr1KPbBajP204tB7ByzZSGtHL+CsdQJZj6ian90svP6/kt11ivQ03klpxRht0+L9b93+yAuOkU98/6MEYLZ1/0002cqKD/cdsIvuU9gzLVbqGrOR61410TYwX9BsGDXVKel4xX2wo9nTTef2DD/uwEXWCRQzXH79nlq78sspBoX5su/028UdZev5D8/5Ppvj/v3fhEMOlSbzx6osxx5w9o1ev/xz0SbVcMldcKA9jFHZqPY8HEYqKoAXRJ8QatmsVirhrIAOUhxWhdxlrE7vr9Bg222I5WJ2SN0DhaMpscJKY23cy3M/evbudFq+//kYMvP22WHrxRWLrrVUDTM+OFp/48IN3VWdq1uipQyz5jJCUPPSD92Iu+UlnkQGDzzeq5Tz043dirkUWUUU+qTT6jJKV5/0PPrYzYeaZW5X/qGUyRLbtHnPNGz1U9ojPSFUH/PTTz2POBX+lKgWtqrZDvxsWIz74NOZdfKmYUU4BPkO+/izGDhkW8/Ra3Kognw9U1GXylyNjXlVZoEAOC/6Jcq/HSTBbYKEFHJYEj//oo/eESZ1ivgXmF+uSxK01++ijdyS1d4355pm3VUJa6/T+e++LrP4gf/EiGRw5Rbncn2qjxrroWkdJ/5TMekvVb0mvWlQeNAS5c847K0464WwVdtklTj/3RMlD42PyaGLRWo4Hr30Kw8hS9nKzN+mHYMNt5+A6xpAq3WcZAxIA/+VmCmCWSxLbwWDKO3HgCKka/iDV6TqbCMAAEIQFDRx4Y+zUd69Ya72V4o7b77Hp8UJZfE4/9cTos3WfOPessx3RcfJpp8XF558fO/XfNU4/7mQB2Q/xx8OPiRuuvyyOPOSIOPAwFXHT56prroxDpGacefqZMlPu4mvnnXtpHK9ak3v03ytOO/V0C3PHnXxcXHj21bHv/v117ygNbaJsyIfGwGvujT+feEQMGNBfqsio2G2fAfGv+5+KE047Qp6rPaTjDouddtsz3n7h3Tj7opNiK+miQ7/6LLbts1N88/l3cfHlZ8natE68+db7scNOO4iNTYhLLr08VlhuxXjm2Zdj5112kll0pvjLZVfGogsvJkAbGjvt1BfLUVx3/Y0x77xz25mze78BaveruO66S2KVlVcXBXwhdtt5X0vnN994pdyOS8bTMr/+6fDDYuvNt4x9ZCEjU8WxBlBP/uF1SiOIVd6kxJU6U4ePeB8JrseUiR5sw4dediwX0MFG6i9wzzWXnGBDUxgDGOyD1nsOOkBH4542HB/z0KFD48STTorl5Pfda/e9xBXaxalyQJypsyp22HLzuPD8i6wqHXH00Sr2ebG8T/vFiSeeIH4zOfY94OC445aBOjXuKMUZH+ANvejyv8bhhx8RF555Vuyya27y2RfEsccfFzvv2i/OlaGlg8TsQ446Mq5Qpd9DBhwYxxz/Z+m941UIfL+446574+gjjlEExgBh+3exw567xzNPDY5Tjzsp9pAzYpiqyvaWoWHIex/FeQLArXtvEV8qmW+Tfv3kT/42Lr3oYpk3fyfv1Tux1RZ95fSYon7+Gr+R2vjcMy/ENgKGHvN2k7nyKtc8+3To57F13z5S5TrJBn9T9BSleufdd2Pn3XaLb+Qgufqqa2J1CVHPqUbL7nv295pff+0NsdTSi5uyfqOiO8S8zaBS0FQT8NED8GOkZtZZ+4PqC/kGOWGfbLyr2XM/98a2a4LqK0ITp4OjMtlAGoDBs7lgJ54osFzXENDaZj76gAuMBmA9PBug0Qa2E2lDQ+2Ix0lg9b1I7uAXntdBYQvFgiq3DAX4SuUC33zpxfjVYovIKrWgJ/vVF8Pi9bffkmG/V8w+m8i6ro0YoTKQr74uw0GvmHPOVtmK70Z8FS/L2bDA/IvEAnKkA7lfff5pvKmoxl5LLh2zy+EAGfvw4w9FOt+L5Zb5dXQXO4Gcvff2G/HRJ5/FSsv+WnbubjZ6/Ft88MuvR8TKcoh0kVUOQP+3TnH5VmyI5wh5Yi1eevUVW7xWWHZZ522zRs+/+IIAuaP6WKZlHtbcXnrtNd9bbuml3RYDfEXjBfCW1bXK7ybYAOl4abEJNnI8tTI5jkmqo6SoxhvolCb2AITMvWkFKqLnd/C+2Cqp9XeaMRiuSqstV2OSXTbIwWAljKUgZqFLzzQniSX9d5xRW6FNzwAMPA9HsG1VTgP4GAPB1DidsBwH/ffKiLRVTQvXlUA9tcPBk4yF31jTxklKJJ7J4UZEoYjXq8CcF4kPxyF06dJZwXDj/I8PdmyqEhHh6JxrLR7lgXHLjZbOOUleL1+TqdRhxwpOGKsNAxhmVAhSB9F8BBwWmgWcSXlHUDDGBobxfeYMuBstxz2GIyRZnuMzKq9B5SiHWNcc9qwxzKh+AQKeg5cjvDIWPlVOqzaucQEjObMnmDD13XXH9bfs1o7xwpeAXYDNV1t1UEzL4qWO0LdAdTaiggbgxTZ66yUfRKLfJgWY8NQJ2O7yUGkGBVh8jA22bX2c3gr2Z6eNoAAZATAg/Xq3SBGUgEk4rKU+KSG65H4JEgiBKXSYbNFGAqmBlXFhqEcTQO/PcUB5YCs1B0N/vdemfRsqWFTGB9awsFxLgacMRCW3WCvJfvnjVN8cn8kX96tND6+Vb9akmrYWqxVFrD6L37KWuIEBthqn3wOJUpVFrUUF9ul7tEv/7JP+OdiDtaZyfVm8eMCN1KDzBW98qkpALPfZuC6pWzcncudiAlGtObcmUoVLOus7lMARDAhvDC4FOSvxueD1vGO/IYUsQMoMjkLUh1ytcWqH8VTWgAMaUjfE4VLz8MTZNN0DMNExm3a1+ES6AAD2vDE+OgAIE+iacg20Ae8ruSU3vZL4HWGTmw2AMb7mkFPey74BFpsjWSetoddC1KlSiO2zb7MXFajBurB+7MVYzgdhbes5kDCBknVz3LXWFMSxF8qnu+WCgVXAjY9M1/W2tema7MefAkFre1pKOVicC42lt4Lz2QwUdNcDoa/iFwnhJSS4Hf2DtEJqK/yXCTqwMBfRmAWpZ2L0w/c2MgQbZGcLbWU6Cayl0m/dblIiSB9AxrXaKPqyzonwCWZCpbRxyCsIogC504oAXGQUxkukBmuAvJJu2iK3NlLous/T0js2JiVglyOhUoidcqo+qr4aqcRQPvuO21AGslqaOcB2AMyiqkWJYMVscvHaUp5t4v3JJjNIGnWmo+4zUaRtTKGu1wOU6S/6GlJ2nTrjaJ3S3xIAACAASURBVMEkXyxGE9argXuh0c/1LsU/bRvP51lkC33wnsTeInksBsKFQ1G5BzYABCw+i6PfkGsDKOQvx9w2/TYJdWMAKnWRV1gH/rkuFn2lzMIm29KE4R/AYUEpaJdAZLmFTU6+6FNqEwEMcGwWQNlGYDLMJmA7+qaooK4BwBXa07gTc5ON7QAZv5NlESVCH5WQzno6INNZjfmpzorHsPiI6DRm4YJOc0BsJmSNf47TB6qAdj1TtbC9xjmJ0sEZlE2okEwWI0kcbbh+Nh4weCfv0ncuCNDuElRJpoBg3vfZRwkE5UHiesWtATwIb4yvyfbLTSdL01n6AFxeM/dLjCjPmx0ozDX/ch2BkjnQD0YT1BgA3hQm5Q2nFuWmOBWYOSfLAAksM0BNIKsAPIgDYOUaIiMx7wqcN3DnelUVCNa3dOLyqdg4wtrSNxhtixfmMHgRZATs1L+JYB+TAmJoOKGmOQlOv53mmhNHAMBJZj4LROaiwIfZBJ5lUYsnAxwFnagunERmqxqTZvMAHt7VAlQNSdbfRvdcuEZnZ+EAMgAjMYHvjMG8mBexALH4uZkFdMX/a4Fs0dN4oSS8B1luQl55n/6z3bb8sBHCWJeUJdBnbXtIQLfsk2NnHg0CID8A0Nxj7VJwdW4T68maJDK1JJKW0crh0gAE6848c22MjFBH3MJWoQgayI1pAvT0MEJAlSToCLTTOZNPUmydmIEmb2qbSmOXI1iSi9KQI8+2JSwxKRbBbABelRMxeUnyZ9Kmj+t41oTAjhwHvLIkeahDo+vruoP/wXB9R+awSpebx7yYn1UNvtN+AoWTCABs7MNcgyrkQtfJdph9y/CDSsSm+hpsg75TW6loSfqGYuA44LQe553hL0+gY5bkfzNO2x5yE336PJtLu+yH3kVIg0LQHvuCluPT9+DxzBeZAaTNuRkgS/BiwXAzwjMtSDDYfNA1QtRAZTKWvuZUmoJs719CU353ugaLmBO3YMPGQfpzQoZWJgPkAc1AJYuQG2+44D6Ap8FbMNT9MsZMVWSdttkUtV/GGxtn2LDk2xa89I/2WRxIGmwAwbPpS18cysriA4RsPIsKICalKyEKbHFpDd5PQHQ7hThgZRuZweMBcPXPmgLrDpClkGdATSri8B0wNedTRysyNgCp9qXm0NTwot0EULMOeHKjEnAjyZU3DKGHhUgsZnCujq579mHqPotG5L7Pe6RzSg9B9uEx8FYwXb8LiyBTQL0lRX2HV5mfJUbRL0M0pnikyecSEIoqeCH1LM5xPmWk8FaxSFCMWsi8Zp23yCGbwrsl6KgfokdYeDasFpo5gK0uGp6syX3rWUuyABAbVWvBRuu+7QMgAe0DfPTH4ieVs8xQNgXaoc1EskYrYC90HWC0PQEKgwAHBeU6y+M3ybpJ+QlSDZKqfwtejFnldK0nGwpbK9cK0IbMwev03UJC6snFo20IT37A+7xjYSzft/ADOWEgutboxfAftd32neJFNgWW5MrEWHgmysaD3Qg7QCbkMIUW8y/6ykmWbsg7UKTi9wY6tdHKc28ZK5AVGLNrpUBdch42eqhNH9KRWGWDSLKPEqJqYeusS6f3srGsBXNhzFAqfcBU67eQU9rWtQJ8yx5gK8DBHCHpIBjrlmtojSYlfeYK6bedmvZqLZLylrzBfK0nkybjyfMiFyCHQC8ux9T1yrPRgoEWP2usNkC/BulIERYCLEhS7LL5ujcNGwvJY1DqA1KFFcd8EfjS8/aHMln4tP4ak9hgjPEACgvfBnr9Pa9ZNUlyafbBPzYQPgdEs1k8z3NJIr3yACSAykLyDh/Gq+u2OmHCxOqkew6lSRJurOTd7L++m4KoCdgT1MrCFdiXAFICVINM9T7PgGRgdCKBgUzfbfRpi72JXGXhMhCCBFzP/bG9gjEyHa4jXU9lH82OzXOADDAaLGijIoAJDsYHMBIKG34LgOg+7/qa/lbAQUl/xgg2IDHfvClJKe2ZnKsNGwn0PmOhHVOXFDRoE6CEJHYCe3RvWgkzYC6LOk627cYgkeTQdSipXMdmAZzwtYyigCTTZ1v3qalWkvO2pTboB8OOyzfQjtamnDymKCkEWWxizMyTOaApZN+opARFguFuR3/hv1BUEAb2xz3WxX3rnvm2/iInQPG8FlAP3lEfthHQTwJhGaBalQaSxFSUR5HkUnEq/MfQzsQZREEzkAQwJGZMo1RNYrxsa9agRmuxmRwTt4Ci52fUwpbd1ljBJPmrccCfyS/mPk4FoHO8fjt4AYyn3QScMph0k2MAMjz8yy8VwzzKfLq7Avdn6Ko8I5kLvweTeTdJZGP0AUBYNLA+MZmNAbigAmAQKiBaBHMs/Z9+p3onMb9kiBL8GAd8sSJrXIopsd2Us007Brrk3xYmYUusNeNBcIPa0lYiTglbZo8AAuOkTahfIkmNt538qi3ETnJZvBI05wUvLmivDp0mI0wgMtMkXvdckU/PsiDTyUM0UYt82eVXxb/feFtHCK0YO6gKgYGoyJAkgCuvukJZkB+anMC1JyvpraciRX675m9jpdVXlwdp+hg+9NM458KLYyb5UvdSFt8M8ubY85RQbsDS9666PuT9D+Iq5Uw9/vDDKvo9XI90jMUVAfIHpaVutt66HnPZpC0PMB4kf/pnMQEyFlbAML28QfDGcfJMkb5qowLPsQEJjAZ+gA1ynJhuykKbULZiObrPdQtsqRm4qBobDTkH0Vn9RIDpeRc5AiADuPVsF4ANHp0U1qwLtsr77BlbBzDUd363adfEhJDcH1MvbaI+9IIDBBJKbMxnUZMsFu0372OQiQUzy033z8f/GX2U2ThcTvFeiy0R99x1ZywsPzGHR7o0rx4nyfwfjz2sg6nml5tR+bnjJsZoBd5PUBbE8cq7HaCIjU8/+jhW45ypWbrFA0pDnXP2Hs79AbqBVARBzm9+7vnXdPLc3vG66pYsufxK8lP3ipEjhsdTTz/pel1/VCTJfqrFYUFLQIKPlqgWyCK8F0GNxQaAmcetd98dI4Z9rvSdHeROnE0RGaP9rovBoKPKDYlDY4zGwiJXgfeyGRQ/xFOEHQDWZYEy+6A/vHwOwtAGdpH/uaOq63OqqmuMJ7JB1byJtYGpRbhNjdVCKG2BwbA4XYdUA7xUZkLc4znLIybXbGoKRxbz2X09zIPopFYtILW+0/rAl3HbmYzBs3V/WvlxDz/kwLhLJ4OuvNoq8eQ/Xoxjjj4y9lLVGvKCWyeohzIE+8R7774RZ555vsJfVhCW/BCDn346jjvqeEud9z5yn2KuusY6yk3uLupwy213Rg+dbzRJPl9vljaZQjEjvh0Zu+/6h3j0H48oHGj/OOywQxV9MZfmMlFJ5w/HiScfF4spCO5U5UTj6+UAL/KpJ8oJT0hOOxVn0QXVIhtju0AXsYfeW/WJFwc/GYNfekmBCXPG1wpo6Cyf9fSKFRtP4LwAchqlyRCbhZ8b9tJtZsWgaS/t504hr9uM8i1zDWBAPtA6zSyqw7qO0nMdmIN+T1Hxm5HK3qACAmQZGQN1cGaxGhrgMBGAuoqhQmn4TOV35slkY947sDnZqC1oJXjBP+igaoJABqD/jkJIGo8uiBQMSWkbGcLC4+D/QlEWa2+weSyz5Hxx9NGHx+777Kkswblj0N23qWNBLx2KBPbecivFOr0bd955TyyzzFIN4Bx44FFxyUVn6jCNW2PZZVeMDTZYT3lSM8ZAZV3MIUweTZyT+qJIy/Ti+zfderNio/rFFr/fLq68WsfzddVGEGAAdijz8X0lmXedaWZlPGrBVafj88+GxV333xuvKIKDdJlFF10ittmqt9Jil40RykZ88J//dAzaMPH2/v12izWVA738SgJCrdr9Knd4x90qHCfAWqTXItFv1z0UprN0fKMkvieU8DZJlYTW22AdC3KQ2+cGPxWfKQFuLQHqTETIaJav6kCWl99/33XBeyro8NHH/6VDugYpsO8TzWemWHPddaLfjtsrGHKUqin9PeaYY/ZY/XdKfhdQtmr7TopH//W0apuMUhLg2gbcCQIg7x1yAXulfmxMIjhT96yKKXriR0t4ulkCmE/T1oMmHUBFboPNbZpAVSbwIRbwbD3XTeEzN1x5RfRXbNZxxx2l1NFDlcW/p1JoBinJ++bYcMO1lSFIhEc7JY9vLUx+O26/9c749fLLuvUJihTZd/994ialfN551/2x+BJL6p0NFFnRVQGBt8UcqmAwRsfsWkURNlIba/9DBuic55vjuqtujG2329JnFxI9wrGzbT/Mb7Qwcg+VY3j+lZdipRVXExkeFy+9+M9YeMGF4oprb5aE3k7yw/YxbMgH0V7FWb7UieO77rJzXHTxRapmcGH8+diTFEm5rE67my8GP/+0rGhT4kLJDOusv6bi0Q6KWxWod/PAm5TMvn58P0rFYBWoOPgJpcrefGNsssUWFgh3VXnK5wc/G48/8mi8KgDcS8GH8883byy51GKqivBKDBn6saoNHKp/A+IPu/bT+F5UEfNBAqqlnCHyzhtvRZ+ttoxZ5ppbcdj3SJtoVUS0qgpFTaHOhqWkvubPQntX5LMQYUxrkWv4gY8n0MttjSH2bGRjNozrH0F7k3Ro9XYqcfDaK8/FddfcHL9be824WmUW9t1vfwXOHaLw0uMcnkM+FJGaLyrO6ZiDDlVIa08dpPVDvKg00quuvUKTXjjuV6WeKdr0tdZaM2adtZtqdt6uo4h62HZrRwRSqXKJthNvH6JTSK+77XZVqVve8WNPqx3KTlmQFFmlGt9vll9ZsV6zxI0KDFxmiV6xxLIrWH0586xzFNj3pzjltLPEt/eJ1557Ov583InxiWLEjtWB1Cuvulq8/+En0b/v9rGxaoaef945ls+GfEoE57bRc67uGtudLj7XVxULjj3mhDjsT4fEE6riv/sftle05heKDN1LbOnceOudd2Mz5S2vuvxScc3Ntyuh/s147eUXY9PNt4hZVF1guM5FXnfbbV0l6KknnhTLuyMG7Ns/zlCBm33229c0+PSzLxJLOzjOP/ccHc6pAqoCau8He5fyka2TzB2ejuoFSy1y3URVwBcgzyjnKQla0c7NRZJ2Kqvu20igZ+FJz0jw6b1l31jpN8vETTffqtDcDkrvHBvrr72WMH9s3Hvv36Jnz546ZX1U7KLox389+4Sgr5VtiOTaXhi+2CKLK9H7+NhI2PCR8og33nQjkXuR64Ei13P0cMyWne+QJ/XbW5v80fvvxa3i2Ssu/+sYrsTyvn13in/86x+KEePkdumS084SV15+cfx+yy3iwyFD4ymVivhsyHuxtOqBTFFe0qH77hV9+u0aJx93nIF7u512i9ee+Uf869G/x6zzzR/HHHNiXHTRuXHaWefGiiLryA/on9dKQ7j2xuviEdUvW/RXv4rVV/tdzCuAveOOe+NCbcKNA2+JxX61cHw2/FOxm7vjWZHvPXWswPEnnqLKev1jtAD+9Vde1plazyh2fKJYzmZx7vkXxxN/fyDuV9/TKzlunXXXVS70/GJ3d4sET1I06LYqqvNZDLr/HsWZz6fzU5RGCxYL8jA4VagWyFcZMQiU3mTzVP2okkHWKeHHqT+X7gUGNeEsAEEy+Jm0Eccdf7wGebbirHeIzRSv/MM4Oe31wF/OvzCefX5wnH/BOfEHYfoYVRPYus828dYbL8UASb0kdBPR2VXH6aygwi1zzjOHAeiTj4fEpptuomD7mcyTZxd/+h79GakYKVfF1vbde7+48bbrFJ99swSmLbVYo1WS+Yn44qvh0a1r57jssqvjFUV3Xnv9X2P5X68g/r1b/EuUZp2Vl5eQqFpdau+ll5+IHXfqH6cIuACiPfccEC+8+FTcd9/fYmFt3oABB6nCwXUx71y/EhXCQtdSq8ZNHi3JfIJKVfwl1vrdWjqUtH88NvhxnXY6ME476RRRoNmib+8+0U8b+heVm3j87w/FTZIHBt10Ryy13NJxiYDk9BOO1aGnM8aSqiw0rWSMN5WMMG7iyLjt5julAi7uuOtrVHLiwfvvFzubGBtsvIFI+UGKJT/BQYCVAOHU1ZTi60SgMlPbB0HcNaTNhgKLZtoZ9F+sNmwi3wUAZeHiEdN53Xe9a0m/Xw7/MvaQTvrMM4MVOdlVi4ezu1Vhr5PqRn43YlJsokoBV2uxOwp7NlLW/+fvvSv1alAstMwSDfucrImMVUW8zpJkP/lkqCrybKzwWTb5tphzjjmtGhASxCJTcPTmG6+PXXbrF+tttElce8U1McusOjOxzWfA3vvHTXdcq8Jvd+tw6fd1guw+cfIpZ8ReA/aN8UpAv0L1R8698AwFxe+jTT7BPH/H7fsqeP61ePDBR2KBBRaIQ484SvHRl8Sxhx4ZK636WwHvuFas2EyqGKho956SwLvJ8HKH6oIcetBRseX2m8VTCow//JjDdHr8BtGnd++YQxv+1hdfxjxKRB943XUxSonzG2+8kajRFGH+ncquWEh2g3eiv+LAv1MFoltuuceb/JIK12y5db/Ytm9v1Vj5Ma6+9gYB3F2x/IrLu/SG9WOorj7sV+noRKqyTuUoaqcwUxXgaQlPoHipKKWfVWioLS9geDoJXAxM1zBSXK2KfAfuuUessOoqscOOO7pA6VjVAUFdoeNzzrogvtIxP3fcdlus/OvlYh3xpnfeeD1uvfH2WFW1P3yQVQIN/XWV+vCx6oVssqk2Wbr3LbfeoRSa2Q0AFcfZRcLVaEm2++6pIPxBt0ef7XrHHnvuHb0WXlT8erwA7uk46s/Hik+PiAduvTeefvvfcbhqUl59k7BeghCfBx95KLbbZtvYu/++qlVyUkyUNLrdDjurANxgL+Yykp4ffOzvsYfUtE0331z1Pi6KLrK8A/zvitTOIjVpZh1c2kkGng813p2V0vLmGy8IOHrpcPGBsdhCC6vQzfGqk3JOdFQO8gk63HrAfgeIz3+s7IxNdFLbHPH4Y480jo/tt91BlOixeOTvf1cWhfT9seN0ZN++EuD+jtUk1lh1VVU7ukJrJf03IzjtxdMa10EjDvtFbklJ2xY2ojWdzwTtTocEUjOeEozy5eO1Uz35tI0AQLM2HOV+b/GagbfdLVJ1o0o8/c/amkcecagW8Zw4W1Xx9j34oFh/083i32++EYPuuVulj34TrmSTEiHA1EXFUj7+ZEisLZ40b9fZ4pZBd8Wsc89mUo+FzcKGJgM2U+/ryCP/GA/ed3+0m6V79FJVv5EChi+HfSrVqXv0k0R98P4HiP+9odpXO/hUuh123EFz+SGeUaGY+5VAf/hRR8SJxx4n6B8fx59yalygPKR555kvdhQAHKB3T1JmxhUXXxiLL7Ww1K2VVXfki3j2hcFxwB//5ArykwQc7US2Djlgv7j0r1cJaPaK87SxnRQP/tDDD0mb2EZnQM8gYLw7llHQ/njVCD3l1FNV4ukKqV3rxworrhIfyPjz4KA7Yhqp8Lc/KFax6KLWeG657SZVQjrIpyVdfO0Fsf2W24lUq3Aq+UAYqLQWZTnDgeIomsRua0Im1+LJ6FmoGfbqQAJyM8v+bF9mboKjDxJKsLqM18IMUvW80apgs+WWm6miXHeVf2jC16LjDJ3ji88+jHtvfzTmWWCeWG+d36lU0mMSrL4Vz91QAlV3ky0EusaShvSsE9DvG0RFgulivc02ihlUHglrT9tzq8BGitKMkTHjrkH3x7OPPR6ffvmxrEFdpOosGeutt5H6W03tc5xOB5HRp+Pqv/w1Pv78k/i1KMq6ymv6/Mth0WuJhWNlFVBDhP3s44/inPPPijdUIGbdtdZWfa6D5fSYxqzl3jtujS+++TxmFtn93crriO1sHPNS1EYyxbSqdfL6v9+Mx57+p8pCraqMicWlowoJdFj2oPse1OZNHxtsuaHLS5A0h/PkL3+5Mv4mKjSrBNc1NthIdUVmVd2yMbG+eG+P2Wazm/CDYR/F+mtuEj21rreIOsyqYnEk/lXoMXYM+95zwysOzN5AEhvYSx80og2GrELXUZeQmiFJkEZHYiLBYXXBhAaUYBZMIwlkFoyCdJOUhRfH3ibIr6VykXS8Q5IWucehkpV9MFabM15WLMxv5XHyRvNb78IK+CBQOWISq072b1WPMUBVMttivKxRE1VxdhptCsl1bJozKwR0TH4aHxmMrXysaljO1Bon81TbWJD4zTHBk1WmYrKq0mByHS8AwYzZRZamcaqpOUXvTjtTZ7EkZXxgycIurjEgBM2kd1vpo5NMdZBvphXrml5GGvuPsYilORS1Exs0+nNXFVvtIEGxCkmMlgAoc7P2pEM8ef8DMeBIJempWt+xx/zRApfDlnLsqL3eZIIXWJ/ShFj/dMy0Ez+0rQMe3NYPzKCtK+eLReNdM0TXffaQl7GlU/NpgtzYKHgBm0A73LTeKvGOzcm2bffVdccy8bz68olk9Em7vJfeGMbhaE18vPAg+oTFpKHeljABE6447uEaZYzlXGn9lU4vKRa7AIKJXZFQrzZjZ9zTqLDNtAKUiQIQapOUOag9hXDM1iaLlbUiQOvTUCHaYi5QRMbC3HLhHYFTailBfuKtXZVvhSkUVgELYS1nlmHpPlX5Pf7Px8TnH3wUiy67uISu62MeGUGocV1ZKiUveXk1LkyzzBNTKyZSR7LSt71QSM9pu4bvVqSjebVewiCCE8NFs5mEXmSwOkVPAWlkMsiVqOo2kC06cX4RxvNkA3a2wysSstDdHNWQg3L8lfqoENIqL1VpKg2QgHX6Z2EDzw4bwkSyLwTIArgCurZOdQMzbTDx3KCK8qx7xePs9VEfjmQFgPAOZV/ILI5MpQ2ATpvvOLJkY6yPM05QQZPalGDJhjv1F4si9oEUkgCSinbBifKGEuXOk4l1hllmjF367hyLSdoG6Gp8ADOUAEDGU+VQHwAfwEoq50gV9qscFHRYRnAXGNcLju2FfEOu9ZsFbLAdbw4TS13a5k+8WbmRhnAmiESuf5baEws9kCS/pha6574YaAKRM+lzI/DwVHptYc//iLeq/tjApD5WDUV5ymrnQ7Fy4W0l0jtNpKh+O2EgrX8YPJAB7D9nTIaCFpVAPqnaldxz7hi6qr5XpKqTwQFEWA9IlFTF4bIgDW0yTjYEgGKuuZYGBAEO9ud2nFchD9UohLtcm4qZ85QTcCvrooCafWqCC5vIECaT0Gu63kKF3KuW6axtbSinjwhzifolC9ChPdr4TpqAA9hYQDqCGrBYkJPk7Y7i1HNI7L6mBXD0CM+wCHrfWJIGF0ZR0ZteHN1zNGmpfllDg0VyVMpP22Veec1FebC5a0w2/uS9WjDG4AhTXaAdv1d91fjY0AImXszNRF6wNpLzdAaFrlX6jTUIXZsqggMKkUDixAO9a4sjjgXaToHKQnACmP38ICHAo2cdLIkJmncJ2wVp0uHkMiFEa1oHhvTxMkEBegBy7LAWXafDJoaal1Kosk82+U/FCzteOzeZCArz8iQjPnmM940UrRwih/YAkfSD4YVnmEyOCTndMUz5bMU1Gyt5D0qRfL+JkNCzjQFHzzkDkDEn74dfoS4a0gFu9Vnl5ZBWHWqcm2hqoGdKqzBW6pqBEuxXWy7URhv67UBDxg/1YY65Ft6wEobAbtYm5Q3HXSewVfRKE+FJP/me+6JNKCLtMxbYK4CZpN+hVGVzMIpqmOQnVz4NAykPBuqUybOf+k+WXdmwDVVqrKlLwYIn5JsH874GgxjvsN1U3pssRw3WURdgo+7ja4YMepEgpTlpeIqjOQCmvFcRoTbKcw+MBzvZbLDKQ87QmcRM+GOROyOI+sKgghWtDAhcZyyM3+Zb/bMKQt8sHJoDLCnlgSZEB0DWe47QBKj4XdhNO4yTeTKv4pP8TvLvcdV31hRE098SSqtygNthXok4FvYYNOOD+qlvMk0rtq0JGgCTHXGfUq1jjZJ3OoyWzVGjFiTYNDUE5EGSic5A2v1p6ioGEnTvOm/KEnhumoUqfusZTwTIZPHaTLSkUGdHqG9naySv9EaC2RoHCV4WhlKIczgrzyGIWV3imPmkHATBA+1gpt4twc9rxJzZTP2tonTeqFz4JmxX47QwmQBTeVhe7BR2LFSB6frNd4cIg4FJdiv81weCQLUqogNs1jOVJ15xdowB7La9nPXXd5+NrPanTQrmgI02czIQ6Hk8UWbBVaytGvMGwidoHP6RUNqW71h1YXVoBCiCDCbPKF5u0ghZTKm0DnD+aQF1b67+wVOcCgMJpF9NyJIyfSXkuswjPD/5XJW6aNI1WfzEYIbnxU/od5qn7lckY8VrwX/rkLNSdcoI5OwI3ilVqy2W0i7jYo76axsC402M9ZiKn7LQPA/QJDUqg5IxmHvMXW35fd7VB/IPElRodM2zBLSp5t2mHagFa4WZ1ntApQH0qqaDHHRFiDAwp5jC4NWp46P122UMNBDX9bJZr1UP22qMnmNRIbFgk/N4E1vKulYZCk790HPmXyldFw+vshTe/NzoEpSci5wbxPPOGkCmAACSJDpCAirFYidJt8MFsplzqFNzap726CRrcJRqbiRhv0XyKzeL+bm4HRuHjMCz+u6QXDYIOQLbgK65rpauO7KG53W9UpFc+FTPWihkTaFOJa/oPcaKQQaEsyWLdhgPe5EA5jSelDtgPwY6qAvAznH3PtQLCALtE3qbHFc2k0VL0uBwVr1omygYyOYU+YL8gN26V0aU0lsrybxUIfNTiEG2Y56bvMusITff4bf0A4BBskrwywkwtjKu8N01xRhvUiDrszyTJLUoR82B+Ti9FSEy52hMaSNcwhNZ/GaeCIsAjt51tj/8MKkI/VioqvViA7nPhiTZdZ42wlcCvuWP+g6Z5XvOj/ZcWU+/K52JtWJzeYZ5NPOGiiXF4j2rtbxbPNl6HlBTC8Li8xKToCEGnVKppTcWk83WM45Z1vPwPAStKURVEuFJe0CkK3V+ygAAFCJJREFUnq9cWx9+Uf3Ac3XPwQfokQlAJVC4D55PabHCaZvcW8bDuHOsFgTZoBwv7yFTgFlcM88Tr8bUaek5LXBNOivj0rjRl+t0WS8i89Q4WOxKnmM9vF6sEXMHA4nv0njA1NJ9K+R2qvVijFA63gfTGCebCOUAiBPgaRN2AsLRh9eCvgAY1gq5B2QAWbiH/MScQDK1CdCaauCgME+AZEIOUkhwHS9UqZSKncCVWM3mQ0LLMmVyk5DliAQELxZc11xOIrG7jOcmJ/AffayaAXWQUPoDo4BGFqGEFj3ftiyzjQ/Jv4HuErz+h4FCzziZnfnlGEpCbZu6yuJBaq126Z0y+jC+EqAAUkggwFLOeubZJI+zdmAWSEJbtAn14XoCWCWLm8RD3mFlYD5sBmExWQtIY1Ux19i547TDxrLJ+k0b/G72AQRLsm/1Lj+toAFJ104fYVOTdFaeb1PHK18wZrNgKSSURNkWWhsBzSvUEiZK5WiEjmQPjZAE6UrodE2O3ESrMwAJz+fmM3nzGsgQPDwB04IMvxMLXImIRU6jABhf6S3WaZOXsnhOBdXfMtY4CZ32AcKcrxeYDUzBykIa48p5ghDMgXZ4z6fUgoE/mYOpRlKsZm4pjJWhp4xSNO32mUduKjKD65MAtMW6mDfPgDi6Zp1eH8+hyHXDQxggD7JwDIaG22KTrrl+lBppTJ96xqmr+mvBC6lYHTZGAhYPnqfOHQhOH0k1UKVshwbjAAjmUxPT9akMFABBYiWUADXCabJ8r1oeUIjsi/EXDyz+xoazSI2eyQYmK3C/jC2vVfooQGMVinkmKbX0r75twEkqWFqEU11ABu9Ni925oqG+c48xWEMAS1P2cNIBAKX2G0dM6uSVu+1anXqmgNI52sgeuk4mi1tgzzQf1pTxmYIB9GPkanTyMko+GwpPTX7jXB4eTj5qHkFjKViYn9ARjeufySx9FS9lYHznevLhErRYADs/8hkGWaeEUnbCkmySHdo2qYNvJxDCb8zf9awdKLSTG2tqU5uXC02Kp0mersN3KalknVfX4IM+8Z2FhjeqXbDCeil9JACa37Pp2ZfHzNhQV9KCxrXSgZ36Ctbm+tiww6Lrr3lwrktVVDBSJY81BdB9S88pGFZKjp0OCfDe+KQ8FchX5TfMu3m2ykmYJ7JhybvKilIWHEt3mozDYvXXPI6Ng4fngB2RoAG5LhablGS4MMm5R/xjY5KswbMbB0VCpBcvAajs6I0wBnnVOC1ZMubEEIAUckm/lf9r3pkY2Bgk9HwVWrHAkv2YevFJVmIhT9cMCBhVEsstEfMY/WlDSh4w7CNA8QVgBFB4LmUGxuqDWlg3fbfJF8ADaLJvxgKPhpfbqJLWOCMS88q1bhXgbwmBnBpQVkO7cYuK5H3e8amrzisGGsBcBAwgTQ8BiQymoKWtUNUkhquRqoFlzwubgO4MROrf//DygDlMMhfN1XZycD7KmPvJFqwHJ9Vwxr/G57QcPVdVdcoh0XiGWDAWOaG9Jm0emmTRG8p3WAIsJIHU82TObWQChtdU5mPxIY9J6abiyWwqAlQKaLZ6+eWWDAPQmDKC1cUC9R0y7tJMAA/ySO5BjdGqZ1IQsyDWJFkc43UBVQBeY4aiASCuPVKyA5REAek/ekBMPCfvHGGuMXAGwKKWUMOml4oAiUuS1CxqblQt6FTXW7jS4h88B0TqX6V4AsXNJjN49VMGiSbtkwnQRo6rjCPmR0w227WThX9SlywVI1zmWK1mpDXIherghTxTAAZPSxJeGoINKFzPul0lgFmLAPvSKgYFZNNqTW0M0dqVANd27v6e7KSpAJh837egRBRTVZ82dLAP6se50OxBCrX2vqlfC6UgFnMtFsYmExni2iB50cJCbSJkwuNoQWMtKCSmBCaTRPi53jFGCIunOlhb11y9BmFDz7gsRZKsKkzW+FgZB4CWfZUxHtXKY0qyZr6o70ymKc+QpLpl9mjxPido6z3r8SlX2J7MQugZNtAqnO7Vx2S61YD1TBa2DCzmpZBwKBUCZi5uFWcr9cwVBhLomrxnXUPwtM0ZwEgW4PGAwSAWwKKxlV/fER667mpFSYZ9RESuRRmuwNoSAD1+qF6bfWgF16uhphYjfCXJUROFDy9IDLY7jY3LRTI2MgAmBUmEvBSWJslqvEW8xyB4Hh4DS4B/63lIsYMQIEn6Xc4GS/cEpOVmWbigT0g8Y6BN+E9iDxKnAxQSO5sokMT8MqhMtbGMg8ZSV7UBgTHSbs7VQl5pAElePW/dt+AJmQT46FvP4Q1CzWn84mBUjsFtJ9V0pIqeKyNUGTpqbi6tAS9nbVkDfS+5xoJYzpd+QAQLfbpe0T2mbvYnJ92n4UaNSEmv+d3mngeYm+sMd1QDOqcjfbcRhQFwnU5zci4jyEIlZtuPrHu218LPIEUsuNpxcVEmlgtt0lYLzdgSGOyLZfz67b4w3uTvsmWXsQa1xThLO63JeqxlTy6+bf8y2J+YBQI4GT8BuBIR2uqlLjZOsnjbNdR3YzKIw1rAaliLWq+UexxNwmbrL2NBFrFZGAzVX/oz4OlvGaUKcXinKunWXplF5lo1qasYCRx1qJuuQ6FBtGK4/lPoFJJZxUf9jO6V6F78i3ea6IzEBivuTAwelxDJhCDR1plZFDaUgWX/bgeSo7+OokjgqDqekGGEFO5XLQ0m3dQ5KWoCFOdiAVh2LKASAmSQwQrvSWCq2iSuBgD74npinet26PtUxprCaMat9hgrC+yImKSGBjB9+D3VWqSkXIYXP5P8tOqSlqvWa5Pt1Fq5YiDjybVjfABUU1yevUuBrKnjZYM6GwsE5ADZCCbmBHUayYGUHlZHCFWkiHksi5IbVtEYjb5b13Mx2FT+wVuqJrapBNSg+k6ob6JHEwut8/I9N6T0YrDRPA82AEboO8CKHOAaHWAzwKF+q+6Hbev0o/uurkfb+tc47vU8C1aOg8IU80GwLWWGxmSqto0E3E8yWta9xjoIAEHVkgK6VFW1Y7DQEDQuU0OQIqmJDR3cg10lMlj3z3m5WnDNM4HdcdcW0RF6kBAZII3ijcLqAgQx0LRq2WHBcwlJrq3J4mjQrqOZk8PKU2TXuqqec3FUkTSrDYT2amJAng3zkN/EGvN5SFzGcLc1jbKoOEpcSyPJO9TD9a0ZE6QPLFRbjQMgx9cUXWduZPsXkKjvsvca8FDVUpixrME15pVkFXmgCQhI9uKiLQCD/pm0a4xQvspPqlJRrrmC/EGfemeqdhLwWBuMN64aTN8AMvuCfKAxQPcKky3MEiyRFjg7b2p/AFb21V4oSCrYA4SD8ggOWFlyEZlkU90+sYzNth7NxFK3cyRCUgK7ufJffTcEsVApNJlU5/PGwBQq7BRI7OIVm0vbYLer7yXFKL5tsqdrFZs9jRLxfqA6rhaBAEPr8JRlUrtVo8uGjsQ0AxXUTM/TBs8gCTNGsNjYnn3YrsDmFzlnkIl1xi7dL1NxIU1RrRKsfrpOLdRN/T3XyRYxqCOsgvXOjSzK6L4KAPN9I5L6R1BGlXO/nPDmB1mE7KSk48YJQP/qyHxKL5ej3FatxL5yXkBWUKEc6aj2Guc1G6BrLinBhum7AwZS8IG0Wl5OwaxtcfSpoimA6gQM82T4kl5zeYs0gpSRwH5bgBB+mTJCay3SMJJYyqYauJEbUjplM5qaokUW9RwAB8CXoYO52MHDXJgbckcWY2d+1U5jKNJ8HTemcTjwAYBJwLLfG2xlbRK4kQHKBu/xpfxULkrG0hhICvASiRrX7RgsXrrZGM8hoYk1tlyh/NNhOgTaGvd9UqveLSmzvFcWqnKTG4kSEs0mJ3QVf2PRK3TGniH1jdXGpZBz4R1pAXnTb+u3+uv620ke29a3asn96b2q78lf21alt7SqBbN1LGWJWngDHONNMg6AW+iEhCcigKkANMaRKnxuH6/+wY6auHA9h0zQ2Pf1ji1UkHfmxVhzk+0T1nWfGJBIZ4CGZaYhp5CmgjcsL7FerHnNk3GqbUeTME9HhiQW2R+Zgoc9PiBWSnU+qBOI5lkgVn8xFvjgjrxu8szzKe7XgptS5MJ7kYDYGjj8kQnkptr4AH/mHUgUpA+yle8D5Q2fFFZYbkBgAXrBKvgZsoEsXczHMcrJiqpshvkWVAmBBVKs9jmHpq1+X8BcY6/oGAMQfA7MBQjUvm34OXdTHWSDXHA8Vw0Z/rm1AejVntcu3y2jj+cF1uea1TO2WxebybnbKYN8w9w86JZwaRv/d3lItiVnSEU6H5wSkwJLE16iex3VacUO2YvkWbcm24UFxUqTEA2/w6PkFNiciOs0Jwm1oxwPDuSPQQKRABOmQDY+peSSthvhjPbh4bqPIGNLHG2y6SU85jNmQ6SxsJh61jo8ZJc+k4JZsEmhyh4v3SfK0kKLflcEDMKkzZysUxvAAzgqgMLGk4wMNUJkew6vZe5QAL1bBhPLPfBzfSyEkm+l51yjq4xArDNry57oXacZAaR6zuvH90QMbA9GGOYGFQHgvlf1H0ifQ3D0sPltkiljQRnTwVogKhfXk9U7KO8lUbblz957A5S6TDJkMYHNLojlGSCVBU4SZ56XAo+jPnLw6Lg+FRbAg8wV9oMdaoNFLHeknSoixWC5J5s8irGUgcSravhs0ZupggbVZku7zcgQyDISc16z2pesqowWFsbol02AZLNePJ981lQCYALo+FsDyHmXENpkaya1tLePdQR7AdTCatYtr9m5BPCwXnTJHrGf7CuAWmky7phBsgFsRPEpBkEnucFtJ1pkparHMsC26Sz22AAw+mtPSy5a22cYjKNSmJTet+GdsTABxsIm8i4bn2SqUW8AMrBAzzkaAoDSsz8t9t32nKm2FjzzYHik/poCJOYyzlYV7ZYt2R8wotYiN4x+LUfot7MVa6MZd46FxafdOnEG/7ypGkgC/xVlKd7JaW821tAd40Lu0HMAEiqi021YH/12tGYCW0WYVlrRVAI0gDFG5JqsPQiGVQs6USOu1g7p1PWpgsMhFWBXQksdgcM6mLTpPUMwg4OkQbLgq0kOnaHBMwmh5UosfdBmOialycA33TebrOtNGgrklvFlZIjriQGEAIL6rMAEhmFymazCflpIZZJ07pePl7bpo0J7IZdWi5gTwItKqTGVbdhkMSkEQNG2wHsdlmLynEDKvF3wlbVIYOGaBajE/CqoagEOwIHXJ3m3cKm2TDHoT9frmv35CFpqr6Jt2haXd+oqsOq6yLkpdPDTAt0WRHS/DgIpmzNd2tmQ9mo71IFuyGmSr8o7LoHN19F1k3dZcEnIdx9sVJK1OpjD13PTHA1Cvyw01/K7ARXDALwLUoV2wLzgWflcE9XBGOkjKVZdtyEoZZG2jpcaU3mpaM/eIv01iUQQ03v2WLGJuXle2+zDkSGJAD81OHnt0+RqgVPr43EAaKyV/tI2gMUYyvHS1o9Qa9GsU+6jMygQhAw1DJoGEACIm4KnJRZwDZ2WkFMcAn6HiSGh6q/5HlAHdoAtQD06ISRH10sPZSFsAYPXY/nRe46U1HfacW3KJI3uO/mto0eB3uQ/DgVOauEDPajcizqUbKHheSwqAJTjgirQFxvvTEzGjAEheXxTyQ6KondYTEeGFo/MdixVJ0WwxQ6qp3fMoxmHxm6+yDy5D3lm3VhntQH5rdQjgIUP15r4cgSv1Km52wheulZF4ac6/Y45ZLqRKSXv1FpgDIGEtT3gwkVTIZmQCLBOL7jUP4PUP5ecgGfkgMvYUGkxjZen+CiQzMaBcfWdduEv3oN0vcEm9K9SWT15/SveVJEX1puB9jK7qo2KjrRdmvnon6+xEbmITQQlpD1JZuMBA+OrnVycOhOidFPz8zZ9OSEgf1e0SBXSKUNMC3H/4+jwGhTApBzR3Od6Yn0TFZvjbDxkOfZG9kh2WKqix5Nyhh0UrG+lrrbNw7Hfs6Q3sKCk4RKGGCgve4v+870Ao6I1gW6UfYQYR1WA3fBSBgavBOIgSXoOnuicWzYPrMi+PDldq9irRsrMxbD0WsCjv00qrb4XjytHQpFQAyGACvRDkSCHLB6Ug4VnHKhxbcbPfIsaOUZL/+CDNpDkYnqMtV7pbKjU30aDQUNA1QOzGW8bagS/txwEgMJO9Nc1xcHKNB2jktqrx+aXgFcaS5s5THXSD6mrFmJK0MlozWLqZWCvE0xNOtgQyCUCid5FEOPDgG2+y8W2kUX/SpAoB389YwdBC9SnituyLqhJUUbYJD0nbsEL4NPfOpvBi8jEoTQ8myTUfIlxaLGsignrHZVSwFG8jWeYC3PKtg39CcBtBR0PlY1kUxkz80UIBIAJcET4yb6KvLsdtc06WN/mL4DAu1Ad325Fs9reTR8AkH47fTjHWQJlBUPSrCN0wFrN2ZmNaRipaJdGWyL8x8JEkpRSiyxZJqTURjQkow325lq0vCOQG/gcJJdB50AKG01eU2WwQJIYVeEyJVxYFQDDeQYA4ntOtiTnMtR4DRPIrCenwObT5ODnbEgCU5MdqfEx57ZhvxURWVEphAhh5fMGsSm0q34aB0BhLH/zXyXPlWDIolc79oqxwbCOZDXlxHChF31s7Ml5NhGwxp48usn40NJarAkVBQGzE1iYY0nyzsxgXzFr+iJ8jgZ4ITHQ9lA1CDQiMMBBmTBDamyx8Ex4OKQ3sbjh2xp8HVhVdmgLXgww+boFEtpMjK/MQXvEGFMGzlXEhGUEBD39Baob5z8ABqnNhWh02qIWLALjSz7q5+iDOes7urKjW4QVltZ1vfzJdQpt47/lPf7p+TpbEUHQkZ70hyQMGc+1LDWwyQpV+xa8ktxXYEEFFFbqj/OyEW7ZZyhEATRABQDmmH966Klt6cxBz7D5/w8kss9F2B4S6wAAAABJRU5ErkJggg==;" vertex="1" parent="989">
          <mxGeometry x="14" y="15" width="36.9" height="68" as="geometry" />
        </mxCell>
        <mxCell id="1x39dECxccnBJiF-yoqs-1004" value="&lt;font color=&quot;#ff0000&quot; size=&quot;1&quot;&gt;&lt;b&gt;&lt;span style=&quot;font-family: &amp;quot;Calibri&amp;quot;, sans-serif; font-size: 12px;&quot;&gt;192.168.X.19:80&lt;br&gt;&lt;/span&gt;&lt;/b&gt;&lt;/font&gt;&lt;div&gt;&lt;font color=&quot;#ff0000&quot; size=&quot;1&quot;&gt;&lt;b&gt;&lt;span style=&quot;font-family: &amp;quot;Calibri&amp;quot;, sans-serif; font-size: 12px;&quot;&gt;(to be routed to Framework APIs)&lt;/span&gt;&lt;/b&gt;&lt;/font&gt;&lt;/div&gt;&lt;div&gt;&lt;font color=&quot;#ff0000&quot; size=&quot;1&quot;&gt;&lt;b&gt;&lt;span style=&quot;font-family: &amp;quot;Calibri&amp;quot;, sans-serif; font-size: 12px;&quot;&gt;&lt;br&gt;&lt;/span&gt;&lt;/b&gt;&lt;/font&gt;&lt;/div&gt;&lt;div&gt;&lt;font color=&quot;#ff0000&quot; size=&quot;1&quot;&gt;&lt;b&gt;&lt;span style=&quot;font-family: &amp;quot;Calibri&amp;quot;, sans-serif; font-size: 12px;&quot;&gt;&lt;br&gt;&lt;/span&gt;&lt;/b&gt;&lt;/font&gt;&lt;/div&gt;&lt;div&gt;&lt;font color=&quot;#ff0000&quot; size=&quot;1&quot;&gt;&lt;b&gt;&lt;span style=&quot;font-family: &amp;quot;Calibri&amp;quot;, sans-serif; font-size: 12px;&quot;&gt;&lt;/span&gt;&lt;/b&gt;&lt;/font&gt;&lt;/div&gt;" style="text;whiteSpace=wrap;html=1;" vertex="1" parent="989">
          <mxGeometry x="14" y="100" width="110" height="40" as="geometry" />
        </mxCell>
        <mxCell id="1x39dECxccnBJiF-yoqs-1007" value="&lt;font color=&quot;#0000ff&quot; style=&quot;font-size: 12px;&quot;&gt;&lt;b&gt;&lt;span style=&quot;font-family: &amp;quot;Calibri&amp;quot;, sans-serif;&quot;&gt;192.168.X.19:&lt;/span&gt;&lt;span style=&quot;font-family: &amp;quot;Calibri&amp;quot;, sans-serif;&quot;&gt;50912&lt;br&gt;&lt;/span&gt;&lt;/b&gt;&lt;/font&gt;&lt;div&gt;&lt;font color=&quot;#0000ff&quot; style=&quot;font-size: 12px;&quot;&gt;&lt;b&gt;&lt;span style=&quot;font-family: &amp;quot;Calibri&amp;quot;, sans-serif;&quot;&gt;&lt;br&gt;&lt;/span&gt;&lt;/b&gt;&lt;/font&gt;&lt;/div&gt;&lt;div style=&quot;&quot;&gt;&lt;font color=&quot;#0000ff&quot; style=&quot;font-size: 12px;&quot;&gt;&lt;b&gt;&lt;span style=&quot;font-family: &amp;quot;Calibri&amp;quot;, sans-serif;&quot;&gt;&lt;br&gt;&lt;/span&gt;&lt;/b&gt;&lt;/font&gt;&lt;/div&gt;&lt;div style=&quot;font-size: 13px;&quot;&gt;&lt;font style=&quot;font-size: 13px;&quot; color=&quot;#ff0000&quot;&gt;&lt;b&gt;&lt;span style=&quot;font-family: &amp;quot;Calibri&amp;quot;, sans-serif;&quot;&gt;&lt;/span&gt;&lt;/b&gt;&lt;/font&gt;&lt;/div&gt;" style="text;whiteSpace=wrap;html=1;" vertex="1" parent="989">
          <mxGeometry x="12.5" y="160" width="110" height="40" as="geometry" />
        </mxCell>
        <mxCell id="1x39dECxccnBJiF-yoqs-1024" value="&lt;font color=&quot;#ff8000&quot; style=&quot;font-size: 12px;&quot;&gt;&lt;b&gt;&lt;span style=&quot;font-family: &amp;quot;Calibri&amp;quot;, sans-serif;&quot;&gt;192.168.X.19:86&lt;/span&gt;&lt;/b&gt;&lt;/font&gt;&lt;font color=&quot;#ff8000&quot; style=&quot;font-size: 12px;&quot;&gt;&lt;b&gt;&lt;span style=&quot;font-family: &amp;quot;Calibri&amp;quot;, sans-serif;&quot;&gt;&lt;br&gt;&lt;/span&gt;&lt;/b&gt;&lt;/font&gt;&lt;div&gt;&lt;font color=&quot;#ff8000&quot; style=&quot;font-size: 12px;&quot;&gt;&lt;b&gt;&lt;span style=&quot;font-family: &amp;quot;Calibri&amp;quot;, sans-serif;&quot;&gt;&lt;br&gt;&lt;/span&gt;&lt;/b&gt;&lt;/font&gt;&lt;/div&gt;&lt;div style=&quot;&quot;&gt;&lt;font color=&quot;#ff8000&quot; style=&quot;font-size: 12px;&quot;&gt;&lt;b&gt;&lt;span style=&quot;font-family: &amp;quot;Calibri&amp;quot;, sans-serif;&quot;&gt;&lt;br&gt;&lt;/span&gt;&lt;/b&gt;&lt;/font&gt;&lt;/div&gt;&lt;div style=&quot;font-size: 13px;&quot;&gt;&lt;font color=&quot;#ff8000&quot; style=&quot;font-size: 13px;&quot;&gt;&lt;b&gt;&lt;span style=&quot;font-family: &amp;quot;Calibri&amp;quot;, sans-serif;&quot;&gt;&lt;/span&gt;&lt;/b&gt;&lt;/font&gt;&lt;/div&gt;" style="text;whiteSpace=wrap;html=1;" vertex="1" parent="989">
          <mxGeometry x="12.5" y="190" width="110" height="40" as="geometry" />
        </mxCell>
        <mxCell id="1x39dECxccnBJiF-yoqs-1029" value="&lt;div&gt;&lt;font color=&quot;#8000ff&quot; style=&quot;font-size: 12px;&quot;&gt;&lt;b&gt;&lt;span style=&quot;font-family: &amp;quot;Calibri&amp;quot;, sans-serif;&quot;&gt;192.168.X.19:8080&lt;/span&gt;&lt;/b&gt;&lt;/font&gt;&lt;font color=&quot;#ff8000&quot; style=&quot;font-size: 12px;&quot;&gt;&lt;b&gt;&lt;span style=&quot;font-family: &amp;quot;Calibri&amp;quot;, sans-serif;&quot;&gt;&lt;br&gt;&lt;br&gt;&lt;/span&gt;&lt;/b&gt;&lt;/font&gt;&lt;/div&gt;&lt;div&gt;&lt;font color=&quot;#408080&quot; style=&quot;font-size: 12px;&quot;&gt;&lt;b&gt;&lt;span style=&quot;font-family: &amp;quot;Calibri&amp;quot;, sans-serif;&quot;&gt;192.168.X.19:8000&lt;/span&gt;&lt;/b&gt;&lt;/font&gt;&lt;font color=&quot;#408080&quot; style=&quot;font-size: 12px;&quot;&gt;&lt;b&gt;&lt;span style=&quot;font-family: &amp;quot;Calibri&amp;quot;, sans-serif;&quot;&gt;&lt;br&gt;&lt;/span&gt;&lt;/b&gt;&lt;/font&gt;&lt;font color=&quot;#ff8000&quot; style=&quot;font-size: 12px;&quot;&gt;&lt;b&gt;&lt;span style=&quot;font-family: &amp;quot;Calibri&amp;quot;, sans-serif;&quot;&gt;&lt;/span&gt;&lt;/b&gt;&lt;/font&gt;&lt;/div&gt;&lt;div&gt;&lt;font color=&quot;#ff8000&quot; style=&quot;font-size: 12px;&quot;&gt;&lt;b&gt;&lt;span style=&quot;font-family: &amp;quot;Calibri&amp;quot;, sans-serif;&quot;&gt;&lt;/span&gt;&lt;/b&gt;&lt;/font&gt;&lt;/div&gt;" style="text;whiteSpace=wrap;html=1;" vertex="1" parent="989">
          <mxGeometry x="12.5" y="210" width="110" height="40" as="geometry" />
        </mxCell>
        <mxCell id="991" value="" style="strokeColor=#dddddd;fillColor=#ffffff;shadow=1;strokeWidth=1;rounded=1;absoluteArcSize=1;arcSize=2;fontSize=11;fontColor=#9E9E9E;align=center;html=1;" parent="1" vertex="1">
          <mxGeometry x="790" y="110" width="210" height="70" as="geometry" />
        </mxCell>
        <mxCell id="992" value="&lt;font color=&quot;#000000&quot;&gt;Framework API&lt;/font&gt; &lt;br&gt;&lt;hr&gt;https://172.20.163.75:80" style="dashed=0;connectable=0;html=1;fillColor=#5184F3;strokeColor=none;shape=mxgraph.gcp2.hexIcon;prIcon=app_engine;part=1;labelPosition=right;verticalLabelPosition=middle;align=left;verticalAlign=top;spacingLeft=5;fontColor=#999999;fontSize=12;spacingTop=-8;" parent="991" vertex="1">
          <mxGeometry width="44" height="39" relative="1" as="geometry">
            <mxPoint x="5" y="7" as="offset" />
          </mxGeometry>
        </mxCell>
        <mxCell id="993" value="" style="strokeColor=#dddddd;fillColor=#ffffff;shadow=1;strokeWidth=1;rounded=1;absoluteArcSize=1;arcSize=2;fontSize=11;fontColor=#9E9E9E;align=center;html=1;" parent="1" vertex="1">
          <mxGeometry x="790" y="200" width="190" height="70" as="geometry" />
        </mxCell>
        <mxCell id="994" value="&lt;font color=&quot;#000000&quot;&gt;In House API&lt;/font&gt;&lt;br&gt;&lt;br&gt;&lt;hr&gt;192.168.0.152:50912" style="dashed=0;connectable=0;html=1;fillColor=#5184F3;strokeColor=none;shape=mxgraph.gcp2.hexIcon;prIcon=compute_engine;part=1;labelPosition=right;verticalLabelPosition=middle;align=left;verticalAlign=top;spacingLeft=5;fontColor=#999999;fontSize=12;spacingTop=-8;" parent="993" vertex="1">
          <mxGeometry width="44" height="39" relative="1" as="geometry">
            <mxPoint x="5" y="7" as="offset" />
          </mxGeometry>
        </mxCell>
        <mxCell id="995" value="" style="strokeColor=#dddddd;fillColor=#ffffff;shadow=1;strokeWidth=1;rounded=1;absoluteArcSize=1;arcSize=2;fontSize=11;fontColor=#9E9E9E;align=center;html=1;" parent="1" vertex="1">
          <mxGeometry x="770" y="320" width="210" height="70" as="geometry" />
        </mxCell>
        <mxCell id="996" value="&lt;font color=&quot;#000000&quot;&gt;Bux-Link API&lt;/font&gt;&lt;br&gt;&lt;br&gt;&lt;hr&gt;192.168.0.152:86" style="dashed=0;connectable=0;html=1;fillColor=#5184F3;strokeColor=none;shape=mxgraph.gcp2.hexIcon;prIcon=container_engine;part=1;labelPosition=right;verticalLabelPosition=middle;align=left;verticalAlign=top;spacingLeft=5;fontColor=#999999;fontSize=12;spacingTop=-8;" parent="995" vertex="1">
          <mxGeometry width="44" height="39" relative="1" as="geometry">
            <mxPoint x="5" y="7" as="offset" />
          </mxGeometry>
        </mxCell>
        <mxCell id="1x39dECxccnBJiF-yoqs-1002" style="edgeStyle=orthogonalEdgeStyle;rounded=0;elbow=vertical;html=1;labelBackgroundColor=none;startFill=1;startSize=4;endArrow=blockThin;endFill=1;endSize=4;jettySize=auto;orthogonalLoop=1;strokeColor=#ff0000;strokeWidth=2;fontSize=12;fontColor=#000000;align=left;dashed=0;exitX=1;exitY=0.5;exitDx=0;exitDy=0;entryX=0;entryY=0.5;entryDx=0;entryDy=0;fillColor=#f8cecc;" edge="1" parent="1" source="989" target="991">
          <mxGeometry relative="1" as="geometry">
            <mxPoint x="580" y="335" as="sourcePoint" />
            <mxPoint x="640" y="285" as="targetPoint" />
          </mxGeometry>
        </mxCell>
        <mxCell id="1x39dECxccnBJiF-yoqs-1005" style="edgeStyle=orthogonalEdgeStyle;rounded=0;orthogonalLoop=1;jettySize=auto;html=1;exitX=0.5;exitY=1;exitDx=0;exitDy=0;" edge="1" parent="1" source="993" target="993">
          <mxGeometry relative="1" as="geometry" />
        </mxCell>
        <mxCell id="1x39dECxccnBJiF-yoqs-1026" value="" style="strokeColor=#dddddd;fillColor=#ffffff;shadow=1;strokeWidth=1;rounded=1;absoluteArcSize=1;arcSize=2;fontSize=11;fontColor=#9E9E9E;align=center;html=1;" vertex="1" parent="1">
          <mxGeometry x="600" y="520" width="210" height="70" as="geometry" />
        </mxCell>
        <mxCell id="1x39dECxccnBJiF-yoqs-1027" value="&lt;font color=&quot;#000000&quot;&gt;Screening Middleware&lt;/font&gt;&lt;br&gt;&lt;br&gt;&lt;hr&gt;192.168.0.111:8000" style="dashed=0;connectable=0;html=1;fillColor=#5184F3;strokeColor=none;shape=mxgraph.gcp2.hexIcon;prIcon=container_engine;part=1;labelPosition=right;verticalLabelPosition=middle;align=left;verticalAlign=top;spacingLeft=5;fontColor=#999999;fontSize=12;spacingTop=-8;" vertex="1" parent="1x39dECxccnBJiF-yoqs-1026">
          <mxGeometry width="44" height="39" relative="1" as="geometry">
            <mxPoint x="5" y="7" as="offset" />
          </mxGeometry>
        </mxCell>
        <mxCell id="1x39dECxccnBJiF-yoqs-1030" value="" style="strokeColor=#dddddd;fillColor=#ffffff;shadow=1;strokeWidth=1;rounded=1;absoluteArcSize=1;arcSize=2;fontSize=11;fontColor=#9E9E9E;align=center;html=1;" vertex="1" parent="1">
          <mxGeometry x="770" y="430" width="210" height="70" as="geometry" />
        </mxCell>
        <mxCell id="1x39dECxccnBJiF-yoqs-1031" value="&lt;font color=&quot;#000000&quot;&gt;Screening Middleware&lt;/font&gt;&lt;br&gt;&lt;br&gt;&lt;hr&gt;192.168.1.42:8080" style="dashed=0;connectable=0;html=1;fillColor=#5184F3;strokeColor=none;shape=mxgraph.gcp2.hexIcon;prIcon=container_engine;part=1;labelPosition=right;verticalLabelPosition=middle;align=left;verticalAlign=top;spacingLeft=5;fontColor=#999999;fontSize=12;spacingTop=-8;" vertex="1" parent="1x39dECxccnBJiF-yoqs-1030">
          <mxGeometry width="44" height="39" relative="1" as="geometry">
            <mxPoint x="5" y="7" as="offset" />
          </mxGeometry>
        </mxCell>
        <mxCell id="1x39dECxccnBJiF-yoqs-1032" style="edgeStyle=orthogonalEdgeStyle;rounded=0;elbow=vertical;html=1;labelBackgroundColor=none;startFill=1;startSize=4;endArrow=blockThin;endFill=1;endSize=4;jettySize=auto;orthogonalLoop=1;strokeColor=#8000ff;strokeWidth=2;fontSize=12;fontColor=#000000;align=left;dashed=0;fillColor=#ffe6cc;entryX=0;entryY=0.75;entryDx=0;entryDy=0;" edge="1" parent="1" source="1x39dECxccnBJiF-yoqs-1029" target="1x39dECxccnBJiF-yoqs-1030">
          <mxGeometry relative="1" as="geometry">
            <mxPoint x="595" y="370" as="sourcePoint" />
            <mxPoint x="780" y="380" as="targetPoint" />
            <Array as="points">
              <mxPoint x="590" y="380" />
              <mxPoint x="590" y="410" />
              <mxPoint x="690" y="410" />
              <mxPoint x="690" y="420" />
              <mxPoint x="740" y="420" />
              <mxPoint x="740" y="483" />
            </Array>
          </mxGeometry>
        </mxCell>
        <mxCell id="1x39dECxccnBJiF-yoqs-1033" style="edgeStyle=orthogonalEdgeStyle;rounded=0;elbow=vertical;html=1;labelBackgroundColor=none;startFill=1;startSize=4;endArrow=blockThin;endFill=1;endSize=4;jettySize=auto;orthogonalLoop=1;strokeColor=#408080;strokeWidth=2;fontSize=12;fontColor=#000000;align=left;dashed=0;fillColor=#ffe6cc;exitX=0.45;exitY=1.175;exitDx=0;exitDy=0;exitPerimeter=0;entryX=0.5;entryY=0;entryDx=0;entryDy=0;" edge="1" parent="1" source="1x39dECxccnBJiF-yoqs-1029" target="1x39dECxccnBJiF-yoqs-1026">
          <mxGeometry relative="1" as="geometry">
            <mxPoint x="600" y="389" as="sourcePoint" />
            <mxPoint x="780" y="493" as="targetPoint" />
            <Array as="points">
              <mxPoint x="512" y="439" />
              <mxPoint x="600" y="439" />
              <mxPoint x="600" y="430" />
              <mxPoint x="660" y="430" />
              <mxPoint x="660" y="493" />
              <mxPoint x="705" y="493" />
            </Array>
          </mxGeometry>
        </mxCell>
      </root>
    </mxGraphModel>
  </diagram>
</mxfile>
